<svg width="22" height="22" viewBox="0 0 22 22" fill="none" xmlns="http://www.w3.org/2000/svg">
<g clip-path="url(#clip0_1141_9730)">
<path d="M20.6108 10.0608L10.9996 15.8285L1.3883 10.0608C1.17983 9.93573 0.930209 9.89858 0.694351 9.95755C0.458493 10.0165 0.255718 10.1668 0.130635 10.3752C0.0055526 10.5837 -0.0315922 10.8333 0.0273724 11.0692C0.0863369 11.305 0.236581 11.5078 0.445052 11.6329L10.5284 17.6829C10.671 17.7686 10.8341 17.8138 11.0005 17.8138C11.1668 17.8138 11.33 17.7686 11.4726 17.6829L21.5559 11.6329C21.7644 11.5078 21.9146 11.305 21.9736 11.0692C22.0325 10.8333 21.9954 10.5837 21.8703 10.3752C21.7452 10.1668 21.5424 10.0165 21.3066 9.95755C21.0707 9.89858 20.8211 9.93573 20.6126 10.0608H20.6108Z" fill="#B9BBBD"/>
<path d="M20.6108 14.2476L10.9995 20.0143L1.3883 14.2476C1.28507 14.1856 1.17066 14.1446 1.05159 14.1269C0.932525 14.1092 0.811133 14.1151 0.694348 14.1443C0.577563 14.1735 0.467672 14.2254 0.37095 14.2971C0.274227 14.3688 0.192567 14.4588 0.130633 14.562C0.0686979 14.6652 0.0277013 14.7796 0.00998337 14.8987C-0.00773452 15.0178 -0.00182666 15.1392 0.0273696 15.256C0.0863342 15.4918 0.236578 15.6946 0.445049 15.8197L10.5284 21.8697C10.671 21.9553 10.8341 22.0006 11.0005 22.0006C11.1668 22.0006 11.33 21.9553 11.4725 21.8697L21.5559 15.8197C21.7644 15.6946 21.9146 15.4918 21.9736 15.256C22.0325 15.0201 21.9954 14.7705 21.8703 14.562C21.7452 14.3535 21.5424 14.2033 21.3066 14.1443C21.0707 14.0854 20.8211 14.1225 20.6126 14.2476H20.6108Z" fill="#B9BBBD"/>
<path d="M10.9997 13.5424C10.5052 13.5421 10.0201 13.4074 9.59629 13.1528L0.444293 7.66104C0.308762 7.57955 0.19662 7.46437 0.118767 7.32672C0.0409147 7.18906 0 7.0336 0 6.87546C0 6.71731 0.0409147 6.56186 0.118767 6.4242C0.19662 6.28654 0.308762 6.17137 0.444293 6.08987L9.59629 0.598125C10.0201 0.343501 10.5053 0.208984 10.9997 0.208984C11.4942 0.208984 11.9793 0.343501 12.4031 0.598125L21.5551 6.08987C21.6907 6.17137 21.8028 6.28654 21.8807 6.4242C21.9585 6.56186 21.9994 6.71731 21.9994 6.87546C21.9994 7.0336 21.9585 7.18906 21.8807 7.32672C21.8028 7.46437 21.6907 7.57955 21.5551 7.66104L12.4031 13.1528C11.9793 13.4074 11.4942 13.5421 10.9997 13.5424ZM2.69838 6.87546L10.5414 11.5807C10.6799 11.6636 10.8383 11.7073 10.9997 11.7073C11.1611 11.7073 11.3195 11.6636 11.458 11.5807L19.301 6.87546L11.458 2.17021C11.3195 2.08735 11.1611 2.04359 10.9997 2.04359C10.8383 2.04359 10.6799 2.08735 10.5414 2.17021L2.69838 6.87546Z" fill="#B9BBBD"/>
</g>
<defs>
<clipPath id="clip0_1141_9730">
<rect width="22" height="22" fill="white"/>
</clipPath>
</defs>
</svg>
