<svg width="98" height="80" viewBox="0 0 98 80" fill="none" xmlns="http://www.w3.org/2000/svg">
<path d="M96 17.8793L82.8062 34.011C81.813 35.2254 79.8721 34.8756 79.3653 33.3909L78.6997 31.4408C78.0445 29.5212 75.2777 29.6836 74.8515 31.6666L72.3172 43.4603C71.8492 45.6377 68.7086 45.5355 68.3832 43.3322L62.536 3.72935C62.2118 1.53327 59.0853 1.4214 58.6049 3.58868L50.9883 37.9512C50.536 39.992 47.6508 40.0584 47.1051 38.0405L41.5648 17.5539C41.022 15.5468 38.1573 15.5977 37.6862 17.6228L33.2257 36.7968L26.5019 66.4463L23.1784 76.1706C22.4813 78.2104 19.4947 77.8558 19.2946 75.7094L15.0747 30.4518C14.8975 28.5517 12.4133 27.9555 11.3931 29.5683L7.50157 35.7201C6.57489 37.185 4.35053 36.8578 3.88488 35.1881L2 28.4294" stroke="#00A389" stroke-width="4"/>
</svg>
