<svg width="100" height="67" viewBox="0 0 100 67" fill="none" xmlns="http://www.w3.org/2000/svg">
<path d="M98 66L81.8611 34.6883C81.2591 33.5205 79.6278 33.42 78.8871 34.5051V34.5051C77.9946 35.8124 75.961 35.339 75.7377 33.772L71.5442 4.34449C71.2163 2.04387 67.8894 2.05846 67.5818 4.36188L62.3294 43.6865C62.0378 45.87 58.9464 46.0468 58.4077 43.9107L53.3823 23.9816C52.9213 22.1536 50.4187 21.9202 49.6276 23.6314L41.298 41.648C40.5835 43.1935 38.3876 43.1962 37.6693 41.6524L33.2257 32.1016L27.686 21.6737C26.9505 20.2892 24.9804 20.2507 24.1915 21.6055L15.69 36.2033C15.0776 37.2548 13.6761 37.5204 12.7215 36.7658L6.93716 32.1939C5.9708 31.43 4.55031 31.7129 3.95029 32.7887L2 36.2853" stroke="#FF5B5B" stroke-width="4"/>
</svg>
