<svg width="96" height="64" viewBox="0 0 96 64" fill="none" xmlns="http://www.w3.org/2000/svg">
<path d="M93.5 52L82.5 33L78.598 27.0245C77.6891 25.6326 75.5775 25.8927 75.0335 27.4636L72.4983 34.785C71.8249 36.7299 69.0069 36.512 68.6404 34.4867L63.1624 4.21544C62.7579 1.98032 59.5321 2.04256 59.2141 4.29162L51.3823 59.6867C51.0604 61.9634 47.7806 61.9871 47.4259 59.7153L41.1525 19.5346C40.8104 17.3434 37.6872 17.2546 37.2211 19.4228L35.5 27.4294L33 38.5253L29.1111 54.4167C28.6372 56.353 25.9321 56.4801 25.2788 54.5968L15.8904 27.5316C15.3414 25.9488 13.2063 25.702 12.3107 27.1178L7.50158 34.72C6.57489 36.185 4.35053 35.8578 3.88488 34.1881L2 27.4294" stroke="#AB54DB" stroke-width="4"/>
</svg>
