<svg width="241" height="71" viewBox="0 0 241 71" fill="none" xmlns="http://www.w3.org/2000/svg">
<path d="M0 51.1888C0 40.3225 8.80887 31.5137 19.6752 31.5137H34.4515C37.157 31.5137 39.3503 33.707 39.3503 36.4125V51.1888C39.3503 62.0551 30.5415 70.864 19.6752 70.864C8.80887 70.864 0 62.0551 0 51.1888Z" fill="#AB54DB"/>
<path d="M67 43C67 36.9249 62.0751 32 56 32H47.7389C46.2262 32 45 33.2262 45 34.7389V43C45 49.0751 49.9249 54 56 54C62.0751 54 67 49.0751 67 43Z" fill="#B7DBF9"/>
<path d="M45.8012 12.2567C45.8012 5.4875 51.2887 0 58.0579 0C64.827 0 70.3145 5.48749 70.3145 12.2567C70.3145 19.0258 64.827 24.5133 58.0579 24.5133H50.7001C47.9945 24.5133 45.8012 22.32 45.8012 19.6144V12.2567Z" fill="#EF9A91"/>
<path d="M39 16.5C39 11.8056 35.1944 8 30.5 8C25.8056 8 22 11.8056 22 16.5C22 21.1944 25.8056 25 30.5 25H35.6026C37.4789 25 39 23.4789 39 21.6026V16.5Z" fill="#F1E6B9"/>
<path d="M94.7643 12C87.2559 12 82 17.1532 82 24.4652C82 31.7772 87.2917 36.8955 94.8001 36.8955C101.415 36.8955 105.598 32.6825 106.885 28.4694V22.9331H93.5844V27.3203H101.343C100.414 30.071 98.304 31.6379 95.2649 31.6379C90.8671 31.6379 88.2213 28.9916 88.2213 24.4652C88.2213 20.2173 90.8313 17.5014 94.7643 17.5014C97.0526 17.5014 98.7688 18.3719 99.6984 20.0084H106.456C105.133 14.9944 100.771 12 94.7643 12Z" fill="white"/>
<path d="M119.067 21.7841C121.105 21.7841 122.821 23.0028 122.821 25.1267H115.17C115.528 22.968 117.065 21.7841 119.067 21.7841ZM128.614 30.2799H122.106C121.606 31.3245 120.64 32.1602 118.924 32.1602C116.958 32.1602 115.349 30.9763 115.134 28.4345H128.971C129.043 27.8426 129.078 27.2507 129.078 26.6936C129.078 20.7744 124.967 17.0139 119.139 17.0139C113.204 17.0139 109.056 20.844 109.056 27.007C109.056 33.1699 113.275 37 119.139 37C124.109 37 127.648 34.0752 128.614 30.2799Z" fill="white"/>
<path d="M141.1 21.7841C143.138 21.7841 144.854 23.0028 144.854 25.1267H137.202C137.56 22.968 139.097 21.7841 141.1 21.7841ZM150.646 30.2799H144.139C143.638 31.3245 142.673 32.1602 140.957 32.1602C138.99 32.1602 137.381 30.9763 137.167 28.4345H151.003C151.075 27.8426 151.111 27.2507 151.111 26.6936C151.111 20.7744 146.999 17.0139 141.171 17.0139C135.236 17.0139 131.088 20.844 131.088 27.007C131.088 33.1699 135.307 37 141.171 37C146.141 37 149.681 34.0752 150.646 30.2799Z" fill="white"/>
<path d="M166.135 36.7214H173L166.135 27.0766L172.821 17.2925H166.207L162.989 22.6546L159.163 17.2925H152.298L159.056 26.798L152.477 36.7214H159.092L162.309 31.3245L166.135 36.7214Z" fill="white"/>
<path d="M82.924 60H84.016V53.796L86.788 60H87.556L90.316 53.808V60H91.408V51.696H90.244L87.172 58.56L84.1 51.696H82.924V60ZM99.4999 56.7C99.4999 54.624 98.0479 53.316 96.1759 53.316C94.3159 53.316 92.8519 54.624 92.8519 56.7C92.8519 58.788 94.2679 60.108 96.1279 60.108C97.9999 60.108 99.4999 58.788 99.4999 56.7ZM93.9679 56.7C93.9679 55.044 95.0119 54.264 96.1639 54.264C97.2919 54.264 98.3839 55.044 98.3839 56.7C98.3839 58.368 97.2679 59.148 96.1279 59.148C94.9879 59.148 93.9679 58.368 93.9679 56.7ZM100.528 56.688C100.528 58.728 101.884 60.108 103.648 60.108C104.848 60.108 105.7 59.496 106.096 58.764V60H107.2V51.12H106.096V54.6C105.64 53.844 104.692 53.316 103.66 53.316C101.884 53.316 100.528 54.636 100.528 56.688ZM106.096 56.7C106.096 58.248 105.064 59.148 103.864 59.148C102.664 59.148 101.644 58.236 101.644 56.688C101.644 55.14 102.664 54.264 103.864 54.264C105.064 54.264 106.096 55.176 106.096 56.7ZM111.841 54.24C112.969 54.24 113.929 54.948 113.917 56.232H109.765C109.885 54.948 110.773 54.24 111.841 54.24ZM114.913 57.972H113.737C113.497 58.68 112.873 59.184 111.889 59.184C110.773 59.184 109.837 58.452 109.753 57.12H115.009C115.033 56.892 115.045 56.7 115.045 56.46C115.045 54.66 113.797 53.316 111.889 53.316C109.969 53.316 108.637 54.624 108.637 56.7C108.637 58.788 110.017 60.108 111.889 60.108C113.521 60.108 114.577 59.172 114.913 57.972ZM117.579 56.424C117.579 54.9 118.371 54.432 119.415 54.432H119.703V53.304C118.659 53.304 117.951 53.76 117.579 54.492V53.424H116.487V60H117.579V56.424ZM125.775 60H126.855V56.124C126.855 54.24 125.691 53.304 124.167 53.304C123.279 53.304 122.487 53.676 122.055 54.36V53.424H120.963V60H122.055V56.364C122.055 54.948 122.823 54.252 123.939 54.252C125.043 54.252 125.775 54.936 125.775 56.28V60ZM137.454 60H138.606L135.594 51.684H134.334L131.31 60H132.462L133.134 58.14H136.782L137.454 60ZM136.47 57.252H133.446L134.958 53.028L136.47 57.252ZM139.516 56.688C139.516 58.728 140.872 60.108 142.636 60.108C143.836 60.108 144.688 59.496 145.084 58.764V60H146.188V51.12H145.084V54.6C144.628 53.844 143.68 53.316 142.648 53.316C140.872 53.316 139.516 54.636 139.516 56.688ZM145.084 56.7C145.084 58.248 144.052 59.148 142.852 59.148C141.652 59.148 140.632 58.236 140.632 56.688C140.632 55.14 141.652 54.264 142.852 54.264C144.052 54.264 145.084 55.176 145.084 56.7ZM157.525 60H158.605V56.124C158.605 54.24 157.441 53.304 155.941 53.304C154.933 53.304 153.997 53.82 153.613 54.768C153.181 53.784 152.281 53.304 151.201 53.304C150.337 53.304 149.557 53.676 149.125 54.372V53.424H148.033V60H149.125V56.376C149.125 54.96 149.881 54.252 150.985 54.252C152.065 54.252 152.785 54.936 152.785 56.28V60H153.865V56.376C153.865 54.96 154.621 54.252 155.725 54.252C156.805 54.252 157.525 54.936 157.525 56.28V60ZM160.397 60H161.489V53.424H160.397V60ZM160.961 52.356C161.357 52.356 161.681 52.032 161.681 51.612C161.681 51.192 161.357 50.868 160.961 50.868C160.541 50.868 160.217 51.192 160.217 51.612C160.217 52.032 160.541 52.356 160.961 52.356ZM168.162 60H169.242V56.124C169.242 54.24 168.078 53.304 166.554 53.304C165.666 53.304 164.874 53.676 164.442 54.36V53.424H163.35V60H164.442V56.364C164.442 54.948 165.21 54.252 166.326 54.252C167.43 54.252 168.162 54.936 168.162 56.28V60ZM176.829 51.636H174.225V60H176.829C179.577 60 181.269 58.428 181.269 55.836C181.269 53.244 179.577 51.636 176.829 51.636ZM175.317 59.1V52.524H176.829C179.013 52.524 180.153 53.796 180.153 55.836C180.153 57.876 179.013 59.1 176.829 59.1H175.317ZM182.301 56.688C182.301 58.728 183.657 60.108 185.409 60.108C186.621 60.108 187.473 59.484 187.869 58.776V60H188.973V53.424H187.869V54.624C187.485 53.94 186.645 53.316 185.421 53.316C183.657 53.316 182.301 54.636 182.301 56.688ZM187.869 56.7C187.869 58.248 186.837 59.148 185.637 59.148C184.437 59.148 183.417 58.236 183.417 56.688C183.417 55.14 184.437 54.264 185.637 54.264C186.837 54.264 187.869 55.176 187.869 56.7ZM195.547 58.212C195.499 55.86 191.683 56.712 191.683 55.152C191.683 54.624 192.163 54.24 192.967 54.24C193.843 54.24 194.347 54.72 194.395 55.38H195.487C195.415 54.096 194.455 53.316 193.003 53.316C191.539 53.316 190.591 54.144 190.591 55.152C190.591 57.6 194.479 56.748 194.479 58.212C194.479 58.752 193.999 59.184 193.135 59.184C192.211 59.184 191.647 58.704 191.587 58.068H190.459C190.531 59.268 191.611 60.108 193.147 60.108C194.599 60.108 195.547 59.292 195.547 58.212ZM197.088 60H198.18V56.364C198.18 54.948 198.948 54.252 200.064 54.252C201.168 54.252 201.9 54.936 201.9 56.28V60H202.98V56.124C202.98 54.24 201.816 53.304 200.352 53.304C199.428 53.304 198.612 53.676 198.18 54.372V51.12H197.088V60ZM205.856 54.648V51.12H204.764V60H205.856V58.788C206.264 59.508 207.116 60.108 208.316 60.108C210.08 60.108 211.436 58.728 211.436 56.688C211.436 54.636 210.092 53.316 208.316 53.316C207.152 53.316 206.276 53.916 205.856 54.648ZM210.32 56.688C210.32 58.236 209.3 59.148 208.088 59.148C206.9 59.148 205.856 58.248 205.856 56.7C205.856 55.176 206.9 54.264 208.088 54.264C209.3 54.264 210.32 55.14 210.32 56.688ZM219.113 56.7C219.113 54.624 217.661 53.316 215.789 53.316C213.929 53.316 212.465 54.624 212.465 56.7C212.465 58.788 213.881 60.108 215.741 60.108C217.613 60.108 219.113 58.788 219.113 56.7ZM213.581 56.7C213.581 55.044 214.625 54.264 215.777 54.264C216.905 54.264 217.997 55.044 217.997 56.7C217.997 58.368 216.881 59.148 215.741 59.148C214.601 59.148 213.581 58.368 213.581 56.7ZM220.141 56.688C220.141 58.728 221.497 60.108 223.249 60.108C224.461 60.108 225.313 59.484 225.709 58.776V60H226.813V53.424H225.709V54.624C225.325 53.94 224.485 53.316 223.261 53.316C221.497 53.316 220.141 54.636 220.141 56.688ZM225.709 56.7C225.709 58.248 224.677 59.148 223.477 59.148C222.277 59.148 221.257 58.236 221.257 56.688C221.257 55.14 222.277 54.264 223.477 54.264C224.677 54.264 225.709 55.176 225.709 56.7ZM229.75 56.424C229.75 54.9 230.542 54.432 231.586 54.432H231.874V53.304C230.83 53.304 230.122 53.76 229.75 54.492V53.424H228.658V60H229.75V56.424ZM232.727 56.688C232.727 58.728 234.083 60.108 235.847 60.108C237.047 60.108 237.899 59.496 238.295 58.764V60H239.399V51.12H238.295V54.6C237.839 53.844 236.891 53.316 235.859 53.316C234.083 53.316 232.727 54.636 232.727 56.688ZM238.295 56.7C238.295 58.248 237.263 59.148 236.063 59.148C234.863 59.148 233.843 58.236 233.843 56.688C233.843 55.14 234.863 54.264 236.063 54.264C237.263 54.264 238.295 55.176 238.295 56.7Z" fill="#A3A3A3"/>
</svg>
