<svg width="22" height="22" viewBox="0 0 22 22" fill="none" xmlns="http://www.w3.org/2000/svg">
<g clip-path="url(#clip0_1139_9714)">
<path d="M6.41667 0H3.66667C2.69421 0 1.76158 0.386308 1.07394 1.07394C0.386308 1.76158 0 2.69421 0 3.66667L0 6.41667C0 7.38913 0.386308 8.32176 1.07394 9.00939C1.76158 9.69702 2.69421 10.0833 3.66667 10.0833H6.41667C7.38913 10.0833 8.32176 9.69702 9.00939 9.00939C9.69702 8.32176 10.0833 7.38913 10.0833 6.41667V3.66667C10.0833 2.69421 9.69702 1.76158 9.00939 1.07394C8.32176 0.386308 7.38913 0 6.41667 0V0ZM8.25 6.41667C8.25 6.9029 8.05684 7.36921 7.71303 7.71303C7.36921 8.05684 6.9029 8.25 6.41667 8.25H3.66667C3.18044 8.25 2.71412 8.05684 2.3703 7.71303C2.02649 7.36921 1.83333 6.9029 1.83333 6.41667V3.66667C1.83333 3.18044 2.02649 2.71412 2.3703 2.3703C2.71412 2.02649 3.18044 1.83333 3.66667 1.83333H6.41667C6.9029 1.83333 7.36921 2.02649 7.71303 2.3703C8.05684 2.71412 8.25 3.18044 8.25 3.66667V6.41667Z" fill="#B9BBBD"/>
<path d="M18.3327 0H15.5827C14.6102 0 13.6776 0.386309 12.99 1.07394C12.3023 1.76158 11.916 2.69421 11.916 3.66667V6.41667C11.916 7.38913 12.3023 8.32176 12.99 9.0094C13.6776 9.69703 14.6102 10.0833 15.5827 10.0833H18.3327C19.3051 10.0833 20.2378 9.69703 20.9254 9.0094C21.613 8.32176 21.9993 7.38913 21.9993 6.41667V3.66667C21.9993 2.69421 21.613 1.76158 20.9254 1.07394C20.2378 0.386309 19.3051 0 18.3327 0V0ZM20.166 6.41667C20.166 6.9029 19.9728 7.36922 19.629 7.71303C19.2852 8.05685 18.8189 8.25 18.3327 8.25H15.5827C15.0964 8.25 14.6301 8.05685 14.2863 7.71303C13.9425 7.36922 13.7493 6.9029 13.7493 6.41667V3.66667C13.7493 3.18044 13.9425 2.71412 14.2863 2.37031C14.6301 2.02649 15.0964 1.83333 15.5827 1.83333H18.3327C18.8189 1.83333 19.2852 2.02649 19.629 2.37031C19.9728 2.71412 20.166 3.18044 20.166 3.66667V6.41667Z" fill="#B9BBBD"/>
<path d="M6.41667 11.9167H3.66667C2.69421 11.9167 1.76158 12.3031 1.07394 12.9907C0.386308 13.6783 0 14.611 0 15.5834L0 18.3334C0 19.3059 0.386308 20.2385 1.07394 20.9262C1.76158 21.6138 2.69421 22.0001 3.66667 22.0001H6.41667C7.38913 22.0001 8.32176 21.6138 9.00939 20.9262C9.69702 20.2385 10.0833 19.3059 10.0833 18.3334V15.5834C10.0833 14.611 9.69702 13.6783 9.00939 12.9907C8.32176 12.3031 7.38913 11.9167 6.41667 11.9167ZM8.25 18.3334C8.25 18.8197 8.05684 19.286 7.71303 19.6298C7.36921 19.9736 6.9029 20.1668 6.41667 20.1668H3.66667C3.18044 20.1668 2.71412 19.9736 2.3703 19.6298C2.02649 19.286 1.83333 18.8197 1.83333 18.3334V15.5834C1.83333 15.0972 2.02649 14.6309 2.3703 14.2871C2.71412 13.9432 3.18044 13.7501 3.66667 13.7501H6.41667C6.9029 13.7501 7.36921 13.9432 7.71303 14.2871C8.05684 14.6309 8.25 15.0972 8.25 15.5834V18.3334Z" fill="#B9BBBD"/>
<path d="M18.3327 11.9167H15.5827C14.6102 11.9167 13.6776 12.3031 12.99 12.9907C12.3023 13.6783 11.916 14.611 11.916 15.5834V18.3334C11.916 19.3059 12.3023 20.2385 12.99 20.9262C13.6776 21.6138 14.6102 22.0001 15.5827 22.0001H18.3327C19.3051 22.0001 20.2378 21.6138 20.9254 20.9262C21.613 20.2385 21.9993 19.3059 21.9993 18.3334V15.5834C21.9993 14.611 21.613 13.6783 20.9254 12.9907C20.2378 12.3031 19.3051 11.9167 18.3327 11.9167ZM20.166 18.3334C20.166 18.8197 19.9728 19.286 19.629 19.6298C19.2852 19.9736 18.8189 20.1668 18.3327 20.1668H15.5827C15.0964 20.1668 14.6301 19.9736 14.2863 19.6298C13.9425 19.286 13.7493 18.8197 13.7493 18.3334V15.5834C13.7493 15.0972 13.9425 14.6309 14.2863 14.2871C14.6301 13.9432 15.0964 13.7501 15.5827 13.7501H18.3327C18.8189 13.7501 19.2852 13.9432 19.629 14.2871C19.9728 14.6309 20.166 15.0972 20.166 15.5834V18.3334Z" fill="#B9BBBD"/>
</g>
<defs>
<clipPath id="clip0_1139_9714">
<rect width="22" height="22" fill="white"/>
</clipPath>
</defs>
</svg>
