<svg width="24" height="24" viewBox="0 0 24 24" fill="none" xmlns="http://www.w3.org/2000/svg">
<path d="M12 11.9998C12.5523 11.9998 13 11.552 13 10.9998C13 10.4475 12.5523 9.99976 12 9.99976C11.4477 9.99976 11 10.4475 11 10.9998C11 11.552 11.4477 11.9998 12 11.9998Z" fill="#464255"/>
<path d="M8 11.9998C8.55229 11.9998 9 11.552 9 10.9998C9 10.4475 8.55229 9.99976 8 9.99976C7.44772 9.99976 7 10.4475 7 10.9998C7 11.552 7.44772 11.9998 8 11.9998Z" fill="#464255"/>
<path d="M16 11.9998C16.5523 11.9998 17 11.552 17 10.9998C17 10.4475 16.5523 9.99976 16 9.99976C15.4477 9.99976 15 10.4475 15 10.9998C15 11.552 15.4477 11.9998 16 11.9998Z" fill="#464255"/>
<path d="M3.05007 21.87C3.25937 21.9564 3.48366 22.0005 3.71007 22C3.93336 22.0011 4.15461 21.9574 4.36072 21.8716C4.56684 21.7857 4.75364 21.6593 4.91007 21.5L7.41007 19H17.0001C18.3262 19 19.5979 18.4732 20.5356 17.5355C21.4733 16.5979 22.0001 15.3261 22.0001 14V8C22.0001 6.67392 21.4733 5.40215 20.5356 4.46447C19.5979 3.52678 18.3262 3 17.0001 3H7.00007C5.67399 3 4.40222 3.52678 3.46454 4.46447C2.52686 5.40215 2.00007 6.67392 2.00007 8V20.29C1.9969 20.6282 2.09528 20.9596 2.28247 21.2412C2.46966 21.5229 2.73705 21.7419 3.05007 21.87V21.87ZM4.00007 8C4.00007 7.20435 4.31614 6.44129 4.87875 5.87868C5.44136 5.31607 6.20442 5 7.00007 5H17.0001C17.7957 5 18.5588 5.31607 19.1214 5.87868C19.684 6.44129 20.0001 7.20435 20.0001 8V14C20.0001 14.7957 19.684 15.5587 19.1214 16.1213C18.5588 16.6839 17.7957 17 17.0001 17H7.00007C6.86847 16.9992 6.738 17.0245 6.61617 17.0742C6.49433 17.124 6.38351 17.1973 6.29007 17.29L4.00007 19.59V8Z" fill="#464255"/>
</svg>