<svg width="672" height="558" viewBox="0 0 672 558" fill="none" xmlns="http://www.w3.org/2000/svg">
<path d="M106.888 136.375L158.797 247.589L246.725 229.324L242.189 215.417L169.203 231.674L122.909 136.044C122.443 135.061 121.736 134.217 120.856 133.578C118.516 131.877 113.632 129.365 108.1 132.588C106.78 133.357 106.243 134.99 106.888 136.375Z" fill="#B7DBF9"/>
<path d="M377.834 556.419H209.563L209.563 302.46H377.834V556.419Z" fill="url(#paint0_linear_1010_10414)"/>
<path d="M217.954 405.441L224.774 425.689C224.774 425.689 214.313 438.047 214.814 452.198C214.814 452.198 257.296 431.567 256.738 428.099C256.179 424.632 241.698 392.721 241.698 392.721L217.954 405.441Z" fill="#AB54DB"/>
<path d="M109.595 379.455L97.1762 396.841C97.1762 396.841 81.0324 395.599 69.8552 404.292C69.8552 404.292 111.457 426.645 113.941 424.162C116.425 421.678 133.811 391.252 133.811 391.252L109.595 379.455Z" fill="#AB54DB"/>
<path d="M164.236 258.995C161.415 253.491 92.968 373.333 94.0713 375.73L145.608 401.809L180.38 345.304L164.236 258.995Z" fill="white" stroke="#AB54DB" stroke-width="1.9236" stroke-miterlimit="10"/>
<path d="M253.203 225.397C253.203 225.397 147.91 234.779 153.899 279.796C153.899 279.796 150.724 313.637 203.428 413.296L256.753 394.978L212.667 303.081L343.372 301.042C343.372 301.042 389.577 286.147 375.012 224.139L314.498 211.143L253.203 225.397Z" fill="white" stroke="#AB54DB" stroke-width="1.9236" stroke-miterlimit="10"/>
<path d="M320.71 115.561C320.71 115.561 323.814 133.568 326.919 136.673C330.024 139.778 339.959 139.778 339.959 139.778L357.966 125.496L344.926 106.248L320.71 115.561Z" fill="white" stroke="#AB54DB" stroke-width="0.9618" stroke-miterlimit="10"/>
<path d="M314.173 116.447C296.73 111.989 286.202 94.2343 290.66 76.7904C295.118 59.3466 312.873 48.8192 330.316 53.2769C347.76 57.7347 358.288 75.4895 353.83 92.9333C349.372 110.377 331.617 120.905 314.173 116.447Z" fill="white"/>
<path d="M322.263 52.5369C304.459 52.5369 289.974 67.0215 289.974 84.8252C289.974 102.629 304.459 117.113 322.263 117.113C340.066 117.113 354.551 102.629 354.551 84.8252C354.551 67.0215 340.066 52.5369 322.263 52.5369ZM322.263 51.9165C340.438 51.9165 355.172 66.6503 355.172 84.8258C355.172 103.001 340.438 117.735 322.263 117.735C304.087 117.735 289.353 103.001 289.353 84.8258C289.353 66.6503 304.087 51.9165 322.263 51.9165Z" fill="#AB54DB"/>
<path d="M201.359 218.954C198.72 220.035 196.972 226.297 194.766 228.432C192.56 230.568 189.369 228.795 192.693 223.874M201.625 225.623C198.301 230.544 200.701 232.814 203.259 231.116C204.388 230.366 205.851 228.14 207.09 225.977C209.157 222.372 212.736 219.887 216.846 219.275C224.778 218.093 239.712 217.794 263.872 224.158C303.241 234.528 328.116 233.582 335.199 193.711L308.354 186.838C308.042 187.582 303.323 207.46 303.323 207.46C303.323 207.46 230.573 199.107 219.724 199.11C208.502 199.113 190.945 214.595 188.789 222.871C188.383 224.432 188.318 228.307 192.692 223.875C193.848 222.704 194.905 219.75 198.167 217.182M197.067 225.026C193.743 229.946 196.062 232.088 198.701 230.518C201.204 229.028 201.6 222.553 205.388 219.768" fill="#FCFCFC"/>
<path d="M201.359 218.954C198.72 220.035 196.972 226.297 194.766 228.432C192.56 230.568 189.369 228.795 192.693 223.874M201.625 225.623C198.301 230.544 200.701 232.814 203.259 231.116C204.388 230.366 205.851 228.14 207.09 225.977C209.157 222.372 212.736 219.887 216.846 219.275C224.778 218.093 239.712 217.794 263.872 224.158C303.241 234.528 328.116 233.582 335.199 193.711L308.354 186.838C308.042 187.582 303.323 207.46 303.323 207.46C303.323 207.46 230.573 199.107 219.724 199.11C208.502 199.113 190.945 214.595 188.789 222.871C188.383 224.432 188.318 228.307 192.692 223.875C193.848 222.704 194.905 219.75 198.167 217.182M197.067 225.026C193.743 229.946 196.062 232.088 198.701 230.518C201.204 229.028 201.6 222.553 205.388 219.768" stroke="#AB54DB" stroke-width="1.9236" stroke-miterlimit="10"/>
<path d="M172.928 197.524C167.961 198.766 164.889 205.128 161.751 205.596C158.444 206.089 156.991 202.973 162.372 199.386M158.439 196.42C153.058 200.007 155.542 203.112 158.646 201.87C161.751 200.628 166.098 195.039 169.202 195.039M158.439 196.42C153.058 200.007 155.542 203.112 158.646 201.87C161.751 200.628 166.098 195.039 169.202 195.039M166.719 201.87C161.338 205.457 162.819 208.735 166.098 208.079C167.546 207.79 169.938 206.149 172.08 204.482C175.651 201.701 180.284 200.675 184.679 201.754C193.16 203.838 208.333 209.7 230.053 226.086C265.446 252.786 290.904 262.1 314.499 224.844L290.283 206.837C289.662 207.458 280.348 220.497 280.348 220.497C280.348 220.497 206.835 187.096 195.902 182.621C184.591 177.992 160.509 186.346 154.92 193.797C153.867 195.202 152.201 199.08 158.438 196.42C160.086 195.717 162.371 193.176 166.718 191.934" fill="white"/>
<path d="M172.928 197.524C167.961 198.766 164.889 205.128 161.751 205.596C158.444 206.089 156.991 202.973 162.373 199.386M158.439 196.42C153.058 200.007 155.542 203.112 158.646 201.87C161.751 200.628 166.098 195.039 169.202 195.039M166.719 201.87C161.338 205.457 162.819 208.735 166.098 208.079C167.546 207.79 169.938 206.149 172.08 204.482C175.651 201.701 180.284 200.675 184.679 201.754C193.16 203.838 208.333 209.7 230.053 226.086C265.446 252.786 290.904 262.1 314.499 224.844L290.283 206.837C289.662 207.458 280.348 220.497 280.348 220.497C280.348 220.497 206.835 187.096 195.902 182.621C184.591 177.992 160.509 186.346 154.92 193.797C153.867 195.202 152.201 199.08 158.438 196.42C160.086 195.717 162.371 193.176 166.718 191.934" stroke="#AB54DB" stroke-width="1.9236" stroke-miterlimit="10"/>
<path d="M521.58 556.109H400.499V346.857H521.58V556.109Z" fill="url(#paint1_linear_1010_10414)"/>
<path d="M465.525 378.133C462.204 378.133 459.512 375.44 459.512 372.119C459.512 368.798 462.204 366.105 465.525 366.105C468.847 366.105 471.539 368.798 471.539 372.119C471.539 375.44 468.847 378.133 465.525 378.133Z" fill="#E6F0FF"/>
<path d="M501.19 388.397C498.842 386.048 498.842 382.241 501.19 379.892C503.539 377.544 507.346 377.544 509.695 379.892C512.043 382.24 512.043 386.048 509.695 388.397C507.346 390.745 503.539 390.745 501.19 388.397Z" fill="#E6F0FF"/>
<path d="M473.726 413.668C470.404 413.668 467.712 410.976 467.712 407.654C467.712 404.333 470.404 401.641 473.726 401.641C477.047 401.641 479.739 404.333 479.739 407.654C479.739 410.976 477.047 413.668 473.726 413.668Z" fill="#E6F0FF"/>
<path d="M480.416 447.441C478.067 445.092 478.067 441.284 480.416 438.936C482.764 436.587 486.572 436.587 488.921 438.936C491.269 441.284 491.269 445.092 488.921 447.441C486.572 449.789 482.764 449.789 480.416 447.441Z" fill="#E6F0FF"/>
<path d="M489.163 487.35C486.814 485.001 486.814 481.194 489.163 478.845C491.511 476.497 495.319 476.497 497.668 478.845C500.016 481.194 500.016 485.001 497.668 487.35C495.319 489.698 491.511 489.698 489.163 487.35Z" fill="#E6F0FF"/>
<path d="M467.712 516.449C464.391 516.449 461.698 513.757 461.698 510.436C461.698 507.114 464.391 504.422 467.712 504.422C471.033 504.422 473.726 507.114 473.726 510.436C473.726 513.757 471.033 516.449 467.712 516.449Z" fill="#E6F0FF"/>
<path d="M491.11 527.454C489.846 524.383 491.312 520.868 494.384 519.604C497.455 518.341 500.97 519.806 502.233 522.878C503.497 525.949 502.032 529.464 498.96 530.727C495.888 531.991 492.374 530.526 491.11 527.454Z" fill="#E6F0FF"/>
<path d="M448.162 476.963C445.814 474.615 445.814 470.807 448.162 468.459C450.511 466.11 454.318 466.11 456.667 468.459C459.015 470.807 459.015 474.615 456.667 476.963C454.318 479.312 450.51 479.312 448.162 476.963Z" fill="#E6F0FF"/>
<path d="M446.391 439.364C443.069 439.364 440.377 436.671 440.377 433.35C440.377 430.029 443.069 427.336 446.391 427.336C449.712 427.336 452.404 430.029 452.404 433.35C452.404 436.671 449.712 439.364 446.391 439.364Z" fill="#E6F0FF"/>
<path d="M414.155 424.396C411.57 422.309 411.167 418.523 413.253 415.939C415.34 413.354 419.126 412.951 421.71 415.037C424.295 417.124 424.698 420.91 422.612 423.494C420.525 426.079 416.739 426.482 414.155 424.396Z" fill="#E6F0FF"/>
<path d="M414.156 468.134C411.571 466.048 411.168 462.261 413.254 459.677C415.341 457.093 419.127 456.689 421.711 458.776C424.296 460.862 424.699 464.648 422.613 467.233C420.526 469.817 416.74 470.221 414.156 468.134Z" fill="#E6F0FF"/>
<path d="M432.722 503.875C429.4 503.875 426.708 501.182 426.708 497.861C426.708 494.54 429.4 491.847 432.722 491.847C436.043 491.847 438.735 494.54 438.735 497.861C438.735 501.182 436.043 503.875 432.722 503.875Z" fill="#E6F0FF"/>
<path d="M416.449 529.971C413.235 529.133 411.31 525.847 412.149 522.634C412.988 519.42 416.273 517.495 419.487 518.334C422.7 519.173 424.626 522.458 423.787 525.672C422.948 528.885 419.662 530.81 416.449 529.971Z" fill="#E6F0FF"/>
<path d="M434.492 398.238C432.144 395.889 432.144 392.082 434.492 389.733C436.841 387.385 440.648 387.385 442.997 389.733C445.345 392.082 445.345 395.889 442.997 398.238C440.648 400.586 436.841 400.586 434.492 398.238Z" fill="#E6F0FF"/>
<path d="M427.199 71.786C427.199 71.786 461.35 96.0024 479.357 55.0212C497.364 14.04 443.126 60.0975 491.829 81.4106C514.439 88.8621 523.132 59.6785 532.446 44.7762C541.76 29.8739 556.662 36.0832 559.146 60.2995C562.296 89.1029 579.473 72.2379 588.689 60.774C599.353 47.509 619.182 45.8853 631.542 57.5861C631.833 57.8618 632.124 58.1452 632.415 58.4364" stroke="#58CDFF" stroke-width="1.9236" stroke-miterlimit="10" stroke-linecap="round"/>
<path d="M670.237 249.056C647.627 241.605 638.934 270.789 629.62 285.69C620.306 300.592 605.404 294.383 602.92 270.167C599.77 241.364 582.592 258.229 573.377 269.692C562.714 282.957 542.884 284.581 530.524 272.88C530.233 272.604 529.942 272.321 529.651 272.03" stroke="#AB54DB" stroke-width="1.9236" stroke-miterlimit="10" stroke-linecap="round"/>
<path d="M-2.43761e-05 556.419H670.602" stroke="#AB54DB" stroke-opacity="0.15" stroke-width="2.8783" stroke-miterlimit="10"/>
<path d="M422.525 137.189C398.195 146.515 376.941 149.179 363.554 134.81L336.233 98.7957C339.337 100.658 347.409 86.9981 339.337 83.8934C331.265 80.7888 329.402 88.8606 329.402 88.8606C312.637 91.3442 305.807 72.7168 305.807 72.7168C298.355 85.7566 289.663 83.2723 289.663 83.2723C292.967 49.4444 325.044 47.4075 345.838 56.2309C344.472 54.3741 343.684 52.1391 343.684 49.742C343.684 43.2286 349.521 37.9443 356.724 37.9443C363.927 37.9443 369.764 43.2286 369.764 49.742C369.764 56.2554 363.927 61.5396 356.724 61.5396C356.183 61.5396 355.65 61.5087 355.121 61.4467C360.505 65.4642 363.833 70.3133 363.554 75.2004C363.113 82.8688 371.625 81.4098 371.625 81.4098C395.221 78.9262 395.842 95.6911 395.842 95.6911C397.704 108.731 405.777 109.351 405.777 109.351C420.851 112.857 426.136 120.519 427.881 126.527C429.153 130.912 426.788 135.555 422.525 137.189Z" fill="#464255"/>
<path d="M324.475 134.809C323.978 134.762 323.452 147.191 323.264 152.099C323.217 153.338 322.664 154.494 321.731 155.31C316.051 160.276 295.254 179.391 284.934 201.587C284.03 203.531 284.671 205.847 286.414 207.097L315.244 227.767C315.972 228.29 316.841 228.582 317.738 228.608L397.678 230.892C400.579 230.975 402.802 228.332 402.216 225.489C398.837 209.085 387.275 160.327 364.449 132.656C364.266 132.435 364.106 132.197 363.97 131.944L361.34 127.049C360.165 124.861 357.443 124.038 355.252 125.21C348.417 128.871 334.123 135.726 324.475 134.809Z" fill="#00A389"/>
<path d="M361.07 139.777V152.358" stroke="white" stroke-width="4.8089" stroke-miterlimit="10" stroke-linecap="round"/>
<path d="M331.184 152.277H343.765" stroke="white" stroke-width="4.8089" stroke-miterlimit="10" stroke-linecap="round"/>
<path d="M363.142 170.897L354.032 162.22" stroke="white" stroke-width="4.8089" stroke-miterlimit="10" stroke-linecap="round"/>
<path d="M334.454 168.363L335.529 180.897" stroke="white" stroke-width="4.8089" stroke-miterlimit="10" stroke-linecap="round"/>
<path d="M320.123 168.707L308.876 174.343" stroke="white" stroke-width="4.8089" stroke-miterlimit="10" stroke-linecap="round"/>
<path d="M313.209 191.424L300.888 188.883" stroke="white" stroke-width="4.8089" stroke-miterlimit="10" stroke-linecap="round"/>
<path d="M320.607 206.744L313.361 217.028" stroke="white" stroke-width="4.8089" stroke-miterlimit="10" stroke-linecap="round"/>
<path d="M354.275 133.936L343.028 139.572" stroke="white" stroke-width="4.8089" stroke-miterlimit="10" stroke-linecap="round"/>
<path d="M381.458 176.817L372.971 186.104" stroke="white" stroke-width="4.8089" stroke-miterlimit="10" stroke-linecap="round"/>
<path d="M359.258 185.184L346.738 183.946" stroke="white" stroke-width="4.8089" stroke-miterlimit="10" stroke-linecap="round"/>
<path d="M345.752 194.646L335.408 201.805" stroke="white" stroke-width="4.8089" stroke-miterlimit="10" stroke-linecap="round"/>
<path d="M383.007 196.508L372.663 203.669" stroke="white" stroke-width="4.8089" stroke-miterlimit="10" stroke-linecap="round"/>
<path d="M391.333 203.735L391.658 216.311" stroke="white" stroke-width="4.8089" stroke-miterlimit="10" stroke-linecap="round"/>
<path d="M366.58 217.075L379.153 216.632" stroke="white" stroke-width="4.8089" stroke-miterlimit="10" stroke-linecap="round"/>
<path d="M342.001 221.428L349.092 211.037" stroke="white" stroke-width="4.8089" stroke-miterlimit="10" stroke-linecap="round"/>
<path d="M335.3 88.1995C337.126 90.8103 336.06 93.2274 333.419 94.5438C332.652 94.9324 333.245 96.0686 334 95.6509C336.707 93.7994 337.756 90.7599 335.3 88.1995Z" fill="#AB54DB"/>
<path d="M311.706 115.561C316.101 115.369 320.352 112.518 321.385 108.125C321.405 108.056 321.297 108.02 321.277 108.095C320.125 112.294 315.918 114.928 311.686 114.941C311.275 114.947 311.29 115.581 311.706 115.561Z" fill="#AB54DB"/>
<path d="M61.1615 302.15C56.532 302.15 52.7791 298.397 52.7791 293.767C52.7791 289.138 56.532 285.385 61.1615 285.385C65.791 285.385 69.5439 289.138 69.5439 293.767C69.5439 298.397 65.791 302.15 61.1615 302.15Z" stroke="#AB54DB" stroke-width="1.8549" stroke-miterlimit="10" stroke-linecap="round"/>
<path d="M624.343 17.7649C619.714 17.7649 615.961 14.0119 615.961 9.38244C615.961 4.75295 619.714 1 624.343 1C628.973 1 632.726 4.75295 632.726 9.38244C632.726 14.0119 628.973 17.7649 624.343 17.7649Z" stroke="#AB54DB" stroke-width="1.8549" stroke-miterlimit="10" stroke-linecap="round"/>
<path d="M321.638 120.386C321.638 120.386 329.713 120.218 334.681 115.251C334.681 115.251 325.367 118.355 321.331 117.478L321.638 120.386Z" fill="#AB54DB"/>
<defs>
<linearGradient id="paint0_linear_1010_10414" x1="293.699" y1="556.419" x2="293.699" y2="302.46" gradientUnits="userSpaceOnUse">
<stop stop-color="#B7DBF9" stop-opacity="0"/>
<stop offset="1" stop-color="#B7DBF9"/>
</linearGradient>
<linearGradient id="paint1_linear_1010_10414" x1="461.04" y1="556.109" x2="461.04" y2="346.857" gradientUnits="userSpaceOnUse">
<stop stop-color="#EF9A91"/>
<stop offset="1" stop-color="#EF9A91" stop-opacity="0"/>
</linearGradient>
</defs>
</svg>
