<svg width="709" height="296" viewBox="0 0 709 296" fill="none" xmlns="http://www.w3.org/2000/svg">
<mask id="mask0_193_94" style="mask-type:alpha" maskUnits="userSpaceOnUse" x="0" y="0" width="709" height="296">
<rect width="709" height="296" rx="24" fill="url(#paint0_linear_193_94)"/>
</mask>
<g mask="url(#mask0_193_94)">
<path opacity="0.15" d="M355 279.872C355 229.801 395.59 189.211 445.661 189.211H513.749C526.216 189.211 536.322 199.317 536.322 211.784V279.872C536.322 329.943 495.732 370.533 445.661 370.533C395.59 370.533 355 329.943 355 279.872Z" fill="#AB54DB"/>
<path opacity="0.15" d="M663.729 242.139C663.729 214.146 641.035 191.453 613.042 191.453H574.975C568.005 191.453 562.355 197.103 562.355 204.073V242.139C562.355 270.133 585.048 292.826 613.042 292.826C641.035 292.826 663.729 270.133 663.729 242.139Z" fill="#B7DBF9"/>
<path opacity="0.15" d="M566.045 100.477C566.045 69.2858 591.331 44 622.522 44C653.714 44 679 69.2858 679 100.477C679 131.669 653.714 156.955 622.522 156.955H588.618C576.151 156.955 566.045 146.848 566.045 134.381V100.477Z" fill="#EF9A91"/>
<path opacity="0.15" d="M534.708 120.03C534.708 98.3989 517.172 80.8632 495.541 80.8632C473.91 80.8632 456.374 98.3989 456.374 120.03C456.374 141.662 473.909 159.197 495.541 159.197H519.053C527.699 159.197 534.708 152.189 534.708 143.543V120.03Z" fill="#F1E6B9"/>
</g>
<defs>
<linearGradient id="paint0_linear_193_94" x1="354.5" y1="-2.21649e-05" x2="665" y2="314" gradientUnits="userSpaceOnUse">
<stop stop-color="#464255"/>
<stop offset="1" stop-color="#332D45"/>
</linearGradient>
</defs>
</svg>
