<svg width="71" height="71" viewBox="0 0 71 71" fill="none" xmlns="http://www.w3.org/2000/svg">
<path d="M0 51.1887C0 40.3224 8.80887 31.5135 19.6752 31.5135H34.4515C37.157 31.5135 39.3503 33.7068 39.3503 36.4124V51.1886C39.3503 62.0549 30.5415 70.8638 19.6752 70.8638C8.80887 70.8638 0 62.0549 0 51.1887Z" fill="#AB54DB"/>
<path d="M67 43C67 36.9249 62.0751 32 56 32H47.7389C46.2262 32 45 33.2262 45 34.7389V43C45 49.0751 49.9249 54 56 54C62.0751 54 67 49.0751 67 43Z" fill="#B7DBF9"/>
<path d="M45.8013 12.2567C45.8013 5.4875 51.2888 0 58.0579 0C64.8271 0 70.3146 5.48749 70.3146 12.2567C70.3146 19.0258 64.8271 24.5133 58.0579 24.5133H50.7001C47.9946 24.5133 45.8013 22.32 45.8013 19.6144V12.2567Z" fill="#EF9A91"/>
<path d="M39 16.5C39 11.8056 35.1944 8 30.5 8C25.8056 8 22 11.8056 22 16.5C22 21.1944 25.8056 25 30.5 25H35.6026C37.4789 25 39 23.4789 39 21.6026V16.5Z" fill="#F1E6B9"/>
</svg>
