<svg width="532" height="355" viewBox="0 0 532 355" fill="none" xmlns="http://www.w3.org/2000/svg">
<path d="M260.038 116.078C259.474 116.078 258.905 115.986 258.357 115.795L249.672 112.783C247.938 112.182 246.646 110.688 246.299 108.884L244.563 99.8489C244.216 98.0455 244.863 96.1782 246.249 94.9754L253.199 88.9525C254.586 87.7498 256.524 87.377 258.258 87.9784L266.944 90.9909C268.677 91.5923 269.97 93.0861 270.316 94.8902L272.053 103.925C272.399 105.728 271.753 107.595 270.366 108.798L263.416 114.821C262.468 115.644 261.26 116.078 260.038 116.078ZM251.815 107.515L259.93 110.33L266.423 104.702L264.801 96.2605L256.685 93.4454L250.192 99.0728L251.815 107.515Z" fill="#F5F5F5"/>
<path d="M361.362 89.8406C360.797 89.8406 360.229 89.7483 359.681 89.5581L355.285 88.0337C353.55 87.4316 352.258 85.9371 351.912 84.1337L351.034 79.562C350.687 77.7593 351.332 75.8927 352.72 74.6892L356.239 71.6398C357.626 70.437 359.565 70.0643 361.298 70.6664L365.694 72.1915C367.428 72.7928 368.721 74.2874 369.067 76.0915L369.945 80.6632C370.291 82.4673 369.645 84.3332 368.26 85.5359L364.741 88.5854C363.792 89.4061 362.585 89.8406 361.362 89.8406ZM357.428 82.7655L361.255 84.0925L364.316 81.4392L363.551 77.4589L359.724 76.1312L356.662 78.7845L357.428 82.7655Z" fill="#F5F5F5"/>
<path d="M482.83 156.746C481.708 156.746 480.626 156.237 479.913 155.347L477.437 152.255C476.605 151.217 476.388 149.801 476.87 148.56L478.308 144.867C478.79 143.627 479.906 142.731 481.22 142.529L485.135 141.928C486.445 141.726 487.781 142.246 488.614 143.284L491.09 146.377C491.922 147.415 492.139 148.831 491.657 150.071L490.219 153.765C489.737 155.004 488.621 155.9 487.306 156.102L483.392 156.703C483.205 156.733 483.017 156.746 482.83 156.746ZM485.7 144.726C485.654 144.726 485.61 144.729 485.565 144.736L481.65 145.337C481.335 145.385 481.067 145.6 480.952 145.898L479.514 149.591C479.398 149.889 479.45 150.229 479.65 150.478L482.126 153.571C482.326 153.82 482.653 153.945 482.961 153.896L486.876 153.295C487.191 153.247 487.458 153.032 487.574 152.735L489.012 149.041C489.127 148.744 489.076 148.404 488.876 148.155V148.154L486.399 145.062C486.229 144.849 485.969 144.726 485.7 144.726Z" fill="#E0E0E0"/>
<path d="M40.928 187.604C39.4859 187.604 38.0956 186.949 37.1792 185.805L31.3591 178.539C30.2908 177.205 30.0121 175.386 30.632 173.792L34.0092 165.113C34.6298 163.519 36.0634 162.369 37.7523 162.11L46.9495 160.698C48.6413 160.439 50.3515 161.107 51.4204 162.442L57.2405 169.708C58.3095 171.042 58.5883 172.861 57.9683 174.454L54.5905 183.134C53.9705 184.728 52.5362 185.879 50.8466 186.139L41.6494 187.55C41.4096 187.586 41.1685 187.604 40.928 187.604ZM35.2945 175.506L40.994 182.621L50.0004 181.24L53.3073 172.741L47.6078 165.625L38.6021 167.007L35.2945 175.506Z" fill="#E0E0E0"/>
<path d="M64.4656 123.963H58.981C57.651 123.963 56.4118 123.247 55.7472 122.094L53.0049 117.34C52.3395 116.187 52.3395 114.755 53.0049 113.602L55.7472 108.847C56.4118 107.694 57.651 106.979 58.981 106.979H64.4656C65.7949 106.979 67.0341 107.694 67.6994 108.847L70.4424 113.601C71.1078 114.754 71.1078 116.186 70.4424 117.339L67.6994 122.094C67.0341 123.247 65.7949 123.963 64.4656 123.963ZM58.9803 109.82C58.6611 109.82 58.3632 109.992 58.2036 110.269L55.4613 115.024C55.3017 115.3 55.3017 115.644 55.4613 115.921L58.2036 120.676C58.3632 120.953 58.6611 121.125 58.9803 121.125H64.4649C64.7841 121.125 65.082 120.953 65.2416 120.676L67.9839 115.921C68.1435 115.644 68.1435 115.3 67.9839 115.024L65.2416 110.269C65.082 109.992 64.7841 109.82 64.4649 109.82H58.9803Z" fill="#EBEBEB"/>
<path d="M158.026 70.256L147.332 63.5195L134.2 41.3384L115.934 30.1438L112.398 33.9764L114.256 36.472L120.019 44.2132L142.913 74.9704L152.248 80.1115L158.026 70.256Z" fill="#EBEBEB"/>
<path d="M144.587 86.2031L141.523 75.9884L107.884 37.5227L103.398 40.1788L110.5 60.4039L130.028 79.6023L134.405 91.5928L144.587 86.2031Z" fill="#EBEBEB"/>
<path d="M162.806 72.1587C162.806 72.1587 200.793 93.0256 208.446 100.07C216.098 107.115 233.978 136.443 232.162 140.189C230.346 143.935 228.957 144.417 224.836 140.814C220.714 137.21 207.398 117.085 203.817 113.833C200.237 110.581 155.742 84.4523 155.742 84.4523L162.806 72.1587Z" fill="#E0E0E0"/>
<path d="M137.053 81.0964C143.697 81.0964 149.083 75.7055 149.083 69.0555C149.083 62.4055 143.697 57.0146 137.053 57.0146C130.409 57.0146 125.023 62.4055 125.023 69.0555C125.023 75.7055 130.409 81.0964 137.053 81.0964Z" fill="#EBEBEB"/>
<path d="M134.027 80.7094C134.037 80.6462 135.061 80.9969 136.965 81.0125C137.914 81.0353 139.081 80.8847 140.372 80.5099C141.659 80.1286 143.071 79.4662 144.396 78.4118C145.711 77.3589 146.967 75.9289 147.793 74.117C148.603 72.315 149.094 70.1723 148.849 67.9471C148.76 66.836 148.48 65.7142 148.039 64.6357C147.839 64.0854 147.544 63.5735 147.27 63.046C146.943 62.549 146.63 62.035 146.231 61.5756C144.721 59.6749 142.514 58.2514 140.034 57.5811C137.541 56.9563 134.92 57.1239 132.676 58.0476C132.104 58.2542 131.581 58.551 131.054 58.8258C130.557 59.1524 130.05 59.4562 129.608 59.8396C128.698 60.5667 127.908 61.4102 127.289 62.3374C125.992 64.1614 125.379 66.2729 125.21 68.2425C125.05 70.2276 125.451 72.0893 126.088 73.6491C126.732 75.2161 127.643 76.4827 128.582 77.4434C129.528 78.3997 130.473 79.0998 131.313 79.5428C132.985 80.4566 134.049 80.649 134.027 80.7094C134.026 80.7158 133.961 80.7016 133.836 80.6689C133.692 80.6284 133.509 80.5773 133.284 80.5141C133.039 80.4502 132.741 80.3572 132.403 80.206C132.061 80.0661 131.661 79.9135 131.245 79.6685C130.385 79.2397 129.412 78.5474 128.436 77.5882C127.467 76.6247 126.522 75.3446 125.847 73.75C125.181 72.1624 124.755 70.2582 124.905 68.2205C125.064 66.1998 125.683 64.0272 127.008 62.1436C127.642 61.1872 128.452 60.3153 129.387 59.5642C129.841 59.1687 130.361 58.8534 130.873 58.5162C131.415 58.2315 131.955 57.9248 132.543 57.7103C134.854 56.754 137.558 56.5772 140.128 57.2219C142.685 57.9113 144.961 59.3845 146.514 61.3455C146.923 61.8191 147.245 62.3495 147.58 62.8628C147.862 63.4067 148.164 63.9349 148.368 64.5022C148.818 65.6141 149.102 66.7699 149.19 67.9138C149.431 70.2049 148.915 72.4031 148.071 74.2455C147.212 76.0986 145.913 77.5541 144.559 78.6156C143.194 79.6799 141.745 80.3373 140.43 80.7065C139.112 81.0686 137.926 81.1993 136.965 81.1546C136.484 81.1659 136.06 81.1041 135.693 81.0594C135.324 81.0275 135.018 80.9628 134.773 80.8997C134.544 80.845 134.361 80.801 134.214 80.7655C134.089 80.7349 134.026 80.7151 134.027 80.7094Z" fill="#E0E0E0"/>
<path d="M135.345 75.6357C131.714 74.6907 129.536 70.9788 130.48 67.345C131.424 63.7105 135.132 61.5308 138.763 62.4751C142.394 63.4194 144.572 67.132 143.628 70.7658C142.685 74.3996 138.976 76.58 135.345 75.6357Z" fill="#E0E0E0"/>
<path d="M135.345 75.6355C135.353 75.5894 135.934 75.7768 137.004 75.7754C138.053 75.7719 139.668 75.4843 141.165 74.2929C141.898 73.7008 142.598 72.8985 143.057 71.8839C143.508 70.875 143.78 69.6772 143.641 68.4354C143.59 67.8149 143.432 67.1887 143.186 66.5873C142.948 65.9817 142.608 65.4002 142.175 64.8805C141.332 63.8204 140.101 63.0274 138.717 62.6532C137.326 62.3046 135.864 62.3976 134.611 62.9124C133.98 63.1545 133.4 63.4974 132.898 63.9106C132.389 64.316 131.948 64.786 131.601 65.3029C130.876 66.3203 130.53 67.499 130.433 68.5995C130.341 69.7092 130.562 70.7507 130.915 71.6255C131.643 73.3955 132.912 74.4328 133.828 74.9476C134.762 75.4715 135.36 75.5908 135.345 75.6355C135.345 75.6355 134.735 75.5695 133.758 75.0754C132.803 74.589 131.462 73.5538 130.674 71.7277C130.291 70.8253 130.044 69.7411 130.127 68.5789C130.215 67.4265 130.566 66.1869 131.321 65.1105C131.682 64.5645 132.143 64.0661 132.676 63.6365C133.203 63.1992 133.812 62.835 134.477 62.5765C135.796 62.0298 137.342 61.9276 138.81 62.2961C140.27 62.6894 141.57 63.5322 142.456 64.6526C142.91 65.2021 143.265 65.817 143.513 66.456C143.769 67.0914 143.93 67.751 143.979 68.4042C144.115 69.712 143.818 70.9659 143.334 72.0145C142.841 73.0696 142.099 73.8968 141.326 74.4988C139.749 75.7094 138.074 75.96 137.002 75.9188C135.91 75.8748 135.345 75.6355 135.345 75.6355Z" fill="#E0E0E0"/>
<path d="M150.48 78.4172L155.394 69.8575C156.835 67.3476 160.036 66.4821 162.544 67.9242L163.003 68.189C165.511 69.631 166.376 72.8352 164.935 75.3451L160.021 83.9048C158.581 86.4147 155.379 87.2802 152.872 85.8382L152.412 85.5733C149.904 84.1306 149.039 80.9271 150.48 78.4172Z" fill="#EBEBEB"/>
<path d="M150.481 78.4166C150.534 78.4351 150.057 79.0734 149.892 80.416C149.823 81.0813 149.881 81.9184 150.208 82.8094C150.383 83.2489 150.621 83.6983 150.943 84.1265C151.275 84.5468 151.687 84.9408 152.181 85.2681C152.683 85.582 153.235 85.9206 153.841 86.1187C154.453 86.3232 155.128 86.4176 155.82 86.3686C157.201 86.2778 158.644 85.555 159.564 84.2926C161.193 81.569 162.921 78.4536 164.775 75.2536C165.671 73.6951 165.65 71.7228 164.799 70.258C164.395 69.5147 163.797 68.9055 163.113 68.4688C162.41 68.0208 161.703 67.6367 160.931 67.4997C159.402 67.188 157.845 67.6204 156.768 68.4923C155.657 69.3421 155.163 70.6393 154.51 71.6603C153.293 73.7299 152.302 75.4169 151.593 76.6232C151.256 77.1812 150.987 77.6264 150.784 77.9629C150.597 78.2668 150.492 78.423 150.481 78.4166C150.47 78.4102 150.553 78.2413 150.72 77.9246C150.908 77.5795 151.158 77.1223 151.469 76.55C152.153 75.3296 153.11 73.6234 154.284 71.5289C154.584 70.9993 154.897 70.4455 155.223 69.8689C155.555 69.2811 156.003 68.7109 156.578 68.2516C157.71 67.3165 159.363 66.8415 160.998 67.1646C161.82 67.3051 162.592 67.7198 163.302 68.1699C164.035 68.6335 164.679 69.2853 165.115 70.0798C166.031 71.6461 166.059 73.7654 165.095 75.4368C163.232 78.6516 161.525 81.716 159.838 84.4935C158.848 85.8361 157.305 86.5923 155.841 86.6746C155.107 86.7194 154.392 86.6115 153.749 86.3885C153.095 86.1627 152.554 85.8191 152.035 85.4847C151.521 85.1339 151.095 84.7136 150.755 84.2685C150.426 83.8148 150.187 83.3412 150.014 82.8804C149.693 81.9468 149.657 81.0798 149.75 80.399C149.842 79.7131 150.058 79.2168 150.2 78.8881C150.373 78.5714 150.47 78.411 150.481 78.4166Z" fill="#E0E0E0"/>
<path d="M135.816 97.6519C135.816 97.6519 150.209 138.562 155.908 147.266C161.608 155.969 187.611 178.397 191.599 177.213C195.587 176.03 196.288 174.735 193.406 170.079C190.524 165.423 172.851 148.998 170.228 144.934C167.604 140.869 149.083 92.6763 149.083 92.6763L135.816 97.6519Z" fill="#E0E0E0"/>
<path d="M143.989 86.4985L134.752 89.9597C132.044 90.9743 130.67 93.9954 131.683 96.7061L131.869 97.2031C132.883 99.9139 135.901 101.289 138.609 100.275L147.846 96.8133C150.555 95.798 151.928 92.7777 150.915 90.0669L150.729 89.5699C149.715 86.8591 146.697 85.4839 143.989 86.4985Z" fill="#EBEBEB"/>
<path d="M143.99 86.4985C143.985 86.4872 144.16 86.4169 144.5 86.2983C144.848 86.211 145.371 86.0782 146.063 86.0988C146.75 86.1173 147.599 86.2948 148.466 86.7634C148.892 87.009 149.32 87.3222 149.714 87.7212C150.098 88.1287 150.442 88.6186 150.705 89.1831C150.95 89.7503 151.201 90.3404 151.317 91.0227C151.433 91.6943 151.423 92.4171 151.259 93.1349C150.94 94.5677 149.944 95.9692 148.459 96.7289C145.447 97.943 142.149 99.1302 138.677 100.448C136.872 101.128 134.787 100.756 133.393 99.5959C132.68 99.0371 132.142 98.2952 131.805 97.4957C131.476 96.7211 131.193 95.8918 131.188 95.0569C131.135 93.3898 131.872 91.8349 132.978 90.8679C133.524 90.3751 134.159 90.0251 134.792 89.7929C135.414 89.5643 136.011 89.3449 136.581 89.1355C138.837 88.3169 140.675 87.6495 141.989 87.1723C142.604 86.9572 143.094 86.7854 143.465 86.6562C143.804 86.5412 143.985 86.4872 143.99 86.4985C143.994 86.5106 143.823 86.588 143.492 86.725C143.128 86.8713 142.645 87.0644 142.04 87.3065C140.736 87.8106 138.911 88.5149 136.674 89.3804C135.561 89.859 134.202 90.1359 133.184 91.0958C132.149 92.0167 131.469 93.485 131.529 95.0455C131.539 95.8294 131.802 96.5905 132.13 97.3573C132.449 98.1035 132.952 98.7936 133.619 99.3133C134.924 100.393 136.866 100.735 138.548 100.102C142.004 98.7908 145.356 97.5923 148.306 96.4258C149.7 95.7222 150.647 94.415 150.962 93.066C151.123 92.3908 151.139 91.7078 151.037 91.0709C150.94 90.4398 150.696 89.8398 150.469 89.2924C150.226 88.7514 149.905 88.2799 149.545 87.8845C149.176 87.4968 148.77 87.1894 148.366 86.9444C147.541 86.4772 146.725 86.2834 146.058 86.2437C144.706 86.1869 144 86.5546 143.99 86.4985Z" fill="#E0E0E0"/>
<path d="M507 321.964C507 322.066 398.871 322.148 265.518 322.148C132.119 322.148 24.0137 322.065 24.0137 321.964C24.0137 321.862 132.12 321.779 265.518 321.779C398.871 321.779 507 321.861 507 321.964Z" fill="#263238"/>
<path d="M61.7227 240.737C61.9191 240.142 84.0205 167.824 84.0205 167.824L83.4673 158.843L89.2476 149.316L96.4275 151.69L95.4451 162.37L90.3421 170.134L68.079 242.793L61.7227 240.737Z" fill="#E0E0E0"/>
<path d="M61.7227 240.738C61.7227 240.738 61.8716 240.777 62.149 240.862C62.4355 240.951 62.8427 241.078 63.3768 241.244C64.4586 241.585 66.0418 242.084 68.0989 242.731L68.0166 242.774C71.6122 230.975 79.9291 203.685 90.1698 170.081L90.1776 170.056L90.1918 170.034C91.8076 167.574 93.5377 164.939 95.2926 162.268L95.2635 162.352C95.5763 158.946 95.9083 155.332 96.2445 151.672L96.3708 151.865C96.1835 151.803 95.9806 151.735 95.777 151.669C93.5625 150.937 91.3657 150.21 89.1909 149.491L89.4058 149.412C87.441 152.649 85.5094 155.831 83.6233 158.937L83.6496 158.831C83.8368 161.893 84.0205 164.89 84.1986 167.812L84.2007 167.845L84.1915 167.875C77.7316 188.885 72.1371 207.081 68.1535 220.037C66.1503 226.515 64.5529 231.681 63.452 235.239C62.9002 237.01 62.4731 238.378 62.1809 239.317C62.0355 239.775 61.9248 240.125 61.8461 240.373C61.7695 240.613 61.7227 240.738 61.7227 240.738C61.7227 240.738 61.7503 240.622 61.8177 240.388C61.8901 240.143 61.9915 239.797 62.1248 239.345C62.405 238.412 62.8129 237.05 63.3406 235.29C64.416 231.733 65.9772 226.571 67.9343 220.096C71.8874 207.101 77.4394 188.847 83.8496 167.772L83.8425 167.835C83.6616 164.914 83.4758 161.917 83.2857 158.855L83.2821 158.798L83.3119 158.749C85.1966 155.641 87.1267 152.458 89.0902 149.221L89.1661 149.095L89.3051 149.141C91.4799 149.86 93.6774 150.586 95.8912 151.318C96.0941 151.385 96.2977 151.452 96.485 151.514L96.6247 151.56L96.6112 151.706C96.2743 155.366 95.9416 158.979 95.6274 162.385L95.6231 162.432L95.5976 162.47C93.8413 165.14 92.1098 167.774 90.4925 170.233L90.5145 170.187C80.1717 203.759 71.7718 231.024 68.14 242.812L68.1201 242.876L68.0577 242.855C65.9957 242.172 64.4082 241.645 63.3236 241.285C62.8001 241.109 62.4001 240.974 62.1192 240.88C61.8518 240.788 61.7227 240.738 61.7227 240.738Z" fill="#263238"/>
<path d="M56.3886 244.253L46.4622 257.689L32.5805 308.089C32.5805 308.089 30.5845 318.37 41.9303 321.29C54.6699 324.57 57.6087 314.802 57.6087 314.802L71.1058 265.578L70.9037 248.496L74.2354 244.74C74.9057 243.985 74.5844 242.789 73.6261 242.472L57.6874 237.203C56.7241 236.885 55.7516 237.662 55.8495 238.673L56.3886 244.253Z" fill="#FF5B5B"/>
<path d="M71.0162 249.09C70.9857 249.187 67.6447 248.213 63.5554 246.914C59.4647 245.615 56.1741 244.483 56.2053 244.385C56.2358 244.288 59.576 245.262 63.6675 246.561C67.7561 247.86 71.0474 248.993 71.0162 249.09Z" fill="#263238"/>
<path d="M71.1053 265.578C71.0989 265.603 70.7456 265.539 70.1108 265.403C69.4752 265.268 68.5616 265.052 67.4359 264.768C65.1845 264.202 62.0918 263.345 58.7161 262.267C55.3403 261.187 52.3228 260.091 50.1608 259.247C49.079 258.825 48.2094 258.471 47.6136 258.212C47.017 257.955 46.6921 257.802 46.7014 257.778C46.7106 257.755 47.0539 257.863 47.6661 258.078C48.3428 258.319 49.2117 258.63 50.253 259.002C52.4363 259.783 55.4602 260.836 58.8295 261.915C62.1982 262.99 65.2731 263.886 67.504 264.515C68.568 264.817 69.4554 265.068 70.147 265.263C70.7698 265.442 71.1117 265.554 71.1053 265.578Z" fill="#263238"/>
<g opacity="0.3">
<path d="M37.5753 309.519L37.2348 309.418C35.9942 309.05 35.2863 307.745 35.6537 306.503L48.116 264.373C48.4834 263.131 49.7872 262.422 51.0278 262.79L51.3683 262.891C52.6089 263.259 53.3168 264.564 52.9494 265.805L40.4871 307.936C40.1197 309.178 38.8159 309.886 37.5753 309.519Z" fill="black"/>
</g>
<g opacity="0.3">
<path d="M44.6515 311.851L44.311 311.75C43.0704 311.383 42.3624 310.078 42.7299 308.836L55.1921 266.705C55.5596 265.463 56.8633 264.755 58.104 265.123L58.4444 265.223C59.6851 265.591 60.393 266.896 60.0255 268.138L47.5633 310.269C47.1965 311.51 45.8928 312.219 44.6515 311.851Z" fill="black"/>
</g>
<g opacity="0.3">
<path d="M52.1632 314.077L51.8227 313.976C50.5821 313.608 49.8742 312.303 50.2416 311.062L62.7039 268.931C63.0713 267.689 64.3751 266.98 65.6157 267.348L65.9562 267.448C67.1968 267.816 67.9047 269.121 67.5373 270.363L55.075 312.494C54.7083 313.736 53.4045 314.445 52.1632 314.077Z" fill="black"/>
</g>
<path d="M90.2749 170.113C90.2416 170.21 88.8272 169.808 87.1156 169.215C85.4039 168.622 84.0434 168.064 84.0768 167.967C84.1101 167.871 85.5245 168.273 87.2361 168.866C88.9478 169.458 90.3083 170.016 90.2749 170.113Z" fill="#263238"/>
<path d="M96.4299 151.689C96.4512 151.696 96.3618 152.047 96.1802 152.685C95.9752 153.375 95.705 154.287 95.3744 155.4C94.6431 157.757 93.6501 160.957 92.5194 164.601L92.464 164.778L92.2874 164.716C91.2326 164.349 90.1403 163.967 89.0202 163.577C87.864 163.171 86.7362 162.775 85.6544 162.395L85.4941 162.339L85.5395 162.176C86.5659 158.527 87.4654 155.327 88.1279 152.971C88.4535 151.866 88.7202 150.962 88.9216 150.278C89.1139 149.649 89.2295 149.309 89.2508 149.316C89.272 149.321 89.1983 149.673 89.0436 150.311C88.8684 151.003 88.6365 151.916 88.3535 153.033C87.7229 155.397 86.8653 158.609 85.8878 162.272L85.7736 162.053C86.8568 162.431 87.9853 162.824 89.1422 163.227C90.2616 163.621 91.3532 164.004 92.4073 164.374L92.1754 164.49C93.3543 160.861 94.3899 157.675 95.1517 155.328C95.5241 154.228 95.8291 153.327 96.0604 152.646C96.2788 152.021 96.4087 151.683 96.4299 151.689Z" fill="#263238"/>
<path d="M305.649 79.4644C305.084 79.4644 304.516 79.3721 303.968 79.1819L295.283 76.1693C293.55 75.568 292.257 74.0748 291.91 72.2714L290.175 63.2353C289.827 61.4319 290.474 59.5646 291.862 58.3618L298.811 52.3396C300.197 51.1383 302.137 50.7648 303.87 51.3655L312.555 54.378C314.289 54.9794 315.582 56.4739 315.928 58.278L317.664 67.3114C318.01 69.1169 317.363 70.9835 315.976 72.1848L309.028 78.2063C308.08 79.0292 306.872 79.4644 305.649 79.4644ZM297.425 70.9004L305.541 73.7149L312.033 68.0874L310.411 59.6455L302.296 56.8303L295.803 62.4578L297.425 70.9004Z" fill="#E0E0E0"/>
<path d="M297.426 70.9004C297.416 70.9097 297.367 70.7158 297.282 70.3388C297.192 69.922 297.074 69.3675 296.926 68.6739C296.62 67.1701 296.193 65.0649 295.669 62.4848C295.659 62.4358 295.679 62.3854 295.713 62.3549C297.559 60.7417 299.759 58.8177 302.182 56.6997C302.23 56.6571 302.296 56.6472 302.353 56.6671C304.865 57.5347 307.609 58.4832 310.47 59.4716C310.363 59.3473 310.619 59.642 310.593 59.6128L310.594 59.615L310.594 59.6192L310.596 59.6278L310.599 59.6455L310.606 59.6803L310.619 59.7499L310.646 59.889L310.699 60.1659L310.805 60.7176C310.875 61.0847 310.945 61.4496 311.015 61.8124C311.153 62.5373 311.291 63.2537 311.426 63.9602C311.695 65.3717 311.955 66.7405 312.205 68.0562C312.217 68.1194 312.193 68.1818 312.149 68.2209C309.708 70.3182 307.502 72.2125 305.632 73.82C305.594 73.8533 305.541 73.8611 305.497 73.8462C303.021 72.958 301 72.2331 299.556 71.7155C298.892 71.4691 298.36 71.2725 297.961 71.1241C297.599 70.9856 297.416 70.9097 297.426 70.9004C297.436 70.8919 297.641 70.9501 298.019 71.0694C298.429 71.2022 298.973 71.379 299.656 71.5998C301.097 72.0826 303.114 72.7578 305.586 73.5856L305.451 73.6112C307.308 71.9882 309.497 70.074 311.919 67.9561L311.863 68.1208C311.607 66.8059 311.342 65.4377 311.068 64.0276C310.932 63.3219 310.794 62.6062 310.653 61.8813C310.584 61.5185 310.513 61.1543 310.443 60.7872L310.336 60.2355L310.283 59.9586L310.256 59.8202L310.243 59.7506L310.236 59.7158L310.233 59.6988L310.231 59.6902L310.23 59.686L310.23 59.6838C310.204 59.6526 310.458 59.9473 310.349 59.8223C307.49 58.8269 304.748 57.8719 302.238 56.9979L302.409 56.9653C299.969 59.0619 297.751 60.9668 295.892 62.5643L295.937 62.4344C296.402 65.0017 296.782 67.0963 297.052 68.5922C297.173 69.3001 297.27 69.8652 297.343 70.2905C297.407 70.681 297.436 70.8919 297.426 70.9004Z" fill="#263238"/>
<path d="M305.65 79.4645C305.649 79.4453 305.958 79.4574 306.528 79.3509C307.09 79.2408 307.936 78.9881 308.796 78.3051C310.48 76.829 312.885 74.721 315.848 72.1231C316.585 71.4962 317.16 70.6143 317.436 69.5983C317.569 69.09 317.628 68.5511 317.599 68.0058C317.566 67.4662 317.422 66.9074 317.319 66.3337C316.873 64.0454 316.398 61.6023 315.898 59.0314C315.773 58.381 315.671 57.747 315.383 57.1613C315.111 56.5734 314.717 56.0338 314.23 55.5858C313.743 55.137 313.159 54.7856 312.524 54.5591C311.863 54.3305 311.197 54.0997 310.524 53.8669C309.179 53.4011 307.809 52.9268 306.419 52.4454C305.723 52.2047 305.023 51.9619 304.319 51.7177C303.612 51.4493 302.929 51.2647 302.189 51.269C301.461 51.2732 300.737 51.4294 300.085 51.7347C299.42 52.0265 298.889 52.5058 298.33 52.9985C297.217 53.962 296.121 54.9106 295.044 55.8435C293.968 56.7757 292.911 57.6916 291.877 58.5884C290.894 59.4794 290.322 60.751 290.26 62.0155C290.212 62.6517 290.348 63.263 290.47 63.897C290.589 64.524 290.706 65.1424 290.822 65.7523C291.054 66.9713 291.278 68.1556 291.495 69.3001C291.717 70.439 291.908 71.5636 292.133 72.5995C292.406 73.6155 292.984 74.4987 293.72 75.1228C294.086 75.4374 294.488 75.6915 294.906 75.8825C295.321 76.0686 295.767 76.2049 296.184 76.3575C297.024 76.6543 297.817 76.934 298.56 77.1967C300.035 77.7214 301.31 78.1744 302.361 78.5486C303.409 78.9078 304.2 79.2543 304.771 79.3516C305.341 79.4574 305.65 79.446 305.65 79.4645C305.65 79.4645 305.341 79.5092 304.759 79.4247C304.17 79.3488 303.366 79.0214 302.314 78.6842C301.257 78.3271 299.976 77.8933 298.492 77.392C297.747 77.1378 296.951 76.8673 296.108 76.5798C295.686 76.4299 295.251 76.3036 294.804 76.1097C294.363 75.9131 293.939 75.6497 293.551 75.3223C292.772 74.6727 292.155 73.7469 291.858 72.674C291.617 71.5984 291.425 70.5043 291.195 69.3576C290.972 68.2138 290.742 67.031 290.505 65.8133C290.386 65.2041 290.266 64.5857 290.144 63.9595C290.023 63.3439 289.873 62.6772 289.922 61.9978C289.983 60.6466 290.59 59.2849 291.641 58.3271C292.676 57.4261 293.733 56.5059 294.809 55.5694C295.885 54.6351 296.98 53.6851 298.092 52.7202C298.374 52.4795 298.637 52.2367 298.944 51.9953C299.251 51.7638 299.582 51.5636 299.932 51.3996C300.632 51.0716 301.409 50.9033 302.191 50.8991C302.969 50.8884 303.758 51.1071 304.442 51.3691C305.146 51.6133 305.846 51.8568 306.541 52.0982C307.93 52.581 309.299 53.0567 310.644 53.5246C311.317 53.7589 311.984 53.9918 312.644 54.2219C313.325 54.4661 313.95 54.8445 314.47 55.3266C314.991 55.8073 315.41 56.3859 315.699 57.0157C316.006 57.6426 316.115 58.3349 316.234 58.9675C316.722 61.5398 317.187 63.9858 317.622 66.2762C317.72 66.8478 317.864 67.4051 317.897 67.9902C317.924 68.5681 317.858 69.1382 317.713 69.6743C317.415 70.7457 316.798 71.6729 316.021 72.3219C313.023 74.8843 310.591 76.9632 308.887 78.4194C307.988 79.1038 307.117 79.3374 306.543 79.4254C305.958 79.5085 305.65 79.4645 305.65 79.4645Z" fill="#263238"/>
<path d="M245.192 64.6838C244.069 64.6838 242.988 64.1748 242.275 63.2844L239.798 60.1924C238.966 59.1536 238.749 57.7379 239.232 56.4975L240.669 52.8041C241.152 51.5637 242.268 50.6684 243.582 50.4668L247.496 49.8661C248.811 49.6659 250.143 50.1842 250.976 51.2222L253.452 54.315C254.283 55.353 254.501 56.7688 254.019 58.0091L252.581 61.7032C252.098 62.9436 250.983 63.8389 249.667 64.0413L245.753 64.6419C245.567 64.6696 245.379 64.6838 245.192 64.6838ZM248.062 52.6628C248.017 52.6628 247.972 52.6664 247.927 52.6735L244.013 53.2741C243.698 53.3224 243.43 53.5375 243.313 53.8357L241.877 57.5284C241.761 57.8266 241.813 58.1667 242.012 58.4159L244.489 61.508C244.689 61.7579 245.009 61.8822 245.325 61.8339L249.239 61.2332C249.555 61.185 249.823 60.9698 249.938 60.6723L251.376 56.9789C251.492 56.6814 251.439 56.3413 251.24 56.0921L248.764 53.0001C248.591 52.7849 248.331 52.6628 248.062 52.6628Z" fill="#E0E0E0"/>
<path d="M248.061 52.6628C248.06 52.6543 248.168 52.6252 248.366 52.677C248.464 52.7054 248.584 52.7565 248.7 52.8545C248.819 52.9575 248.913 53.0888 249.037 53.2287C249.554 53.8507 250.233 54.6665 251.052 55.6512C251.16 55.7826 251.268 55.9168 251.379 56.0531C251.498 56.2157 251.568 56.4173 251.576 56.6275C251.591 56.8398 251.502 57.057 251.438 57.2196C251.371 57.3964 251.303 57.576 251.234 57.7585C250.954 58.4933 250.656 59.2736 250.344 60.0923C250.265 60.2975 250.185 60.5055 250.105 60.7156C250.016 60.962 249.822 61.1864 249.576 61.3071C249.309 61.4349 249.072 61.4249 248.846 61.4732C248.614 61.5094 248.38 61.5463 248.144 61.5833C247.187 61.7267 246.25 61.8907 245.189 62.0277C244.883 62.0284 244.581 61.8942 244.381 61.6663C244.222 61.4682 244.064 61.2716 243.907 61.0763C243.599 60.6901 243.295 60.3095 242.997 59.9354C242.699 59.5612 242.406 59.1934 242.119 58.8327L241.906 58.5636C241.83 58.4749 241.749 58.3464 241.706 58.2235C241.613 57.9722 241.625 57.6847 241.723 57.4489C242.047 56.6339 242.355 55.8578 242.645 55.1265C242.789 54.7644 242.93 54.4137 243.065 54.075C243.138 53.9131 243.181 53.7356 243.305 53.5624C243.422 53.3991 243.585 53.2777 243.762 53.2081C245.126 52.9582 246.158 52.8616 246.907 52.7558C247.644 52.665 248.059 52.6266 248.061 52.6628C248.06 52.6777 247.963 52.6891 247.77 52.7345C247.535 52.7807 247.258 52.8346 246.929 52.8985C246.213 53.0405 245.102 53.2003 243.861 53.4502C243.73 53.5056 243.612 53.5986 243.528 53.7207C243.447 53.8329 243.401 54.0076 243.331 54.1787C243.202 54.5195 243.069 54.8731 242.931 55.238C242.65 55.9729 242.353 56.7531 242.04 57.5725C241.972 57.7443 241.969 57.9317 242.033 58.1036C242.084 58.264 242.253 58.4231 242.395 58.6112C242.684 58.9698 242.98 59.3361 243.28 59.7082C243.58 60.0816 243.885 60.4608 244.195 60.8463C244.348 61.0366 244.502 61.2276 244.657 61.42C244.788 61.5698 244.988 61.6578 245.19 61.6578C246.183 61.5094 247.153 61.3646 248.09 61.2247C248.326 61.1892 248.561 61.1537 248.793 61.1189C249.026 61.0756 249.271 61.0706 249.42 60.9904C249.588 60.9081 249.716 60.7661 249.782 60.5893C249.865 60.3798 249.947 60.1725 250.027 59.968C250.351 59.1536 250.659 58.3769 250.95 57.6463C251.022 57.4653 251.094 57.2864 251.164 57.111C251.24 56.925 251.299 56.7908 251.293 56.6339C251.29 56.4812 251.243 56.3314 251.158 56.21C251.053 56.0751 250.95 55.9423 250.85 55.8131C250.068 54.7978 249.42 53.9572 248.927 53.3167C248.543 52.6408 248.043 52.6962 248.061 52.6628Z" fill="#263238"/>
<path d="M245.192 64.6838C245.192 64.671 245.357 64.6462 245.666 64.6107C246.012 64.5503 246.461 64.4715 247.02 64.3743C247.623 64.2727 248.341 64.152 249.166 64.0129C249.588 63.9412 250.029 63.89 250.457 63.6998C250.888 63.5237 251.306 63.2454 251.666 62.8762C252.027 62.5034 252.318 62.0455 252.506 61.503C252.714 60.957 252.931 60.3904 253.155 59.8047C253.541 58.6169 254.335 57.4042 254.048 56.046C253.931 55.3743 253.621 54.7509 253.137 54.2028C252.673 53.6263 252.201 53.0377 251.719 52.4392C251.479 52.1395 251.235 51.8371 250.99 51.5325C250.749 51.2194 250.505 50.9538 250.198 50.7245C249.596 50.2708 248.834 50.0088 248.06 50.0102C247.678 50.0031 247.285 50.0926 246.882 50.1473C246.484 50.2083 246.089 50.2687 245.697 50.3283C244.916 50.4497 244.148 50.569 243.392 50.6869C242.679 50.8445 242.027 51.2194 241.548 51.7363C241.307 51.994 241.107 52.2837 240.954 52.5925C240.807 52.8957 240.686 53.2478 240.554 53.5716C240.295 54.2291 240.043 54.8702 239.798 55.4936C239.567 56.1241 239.265 56.7098 239.177 57.2998C238.974 58.5111 239.438 59.6393 240.145 60.416C240.801 61.2517 241.397 62.0107 241.927 62.6837C242.194 63.0153 242.417 63.3426 242.672 63.5854C242.926 63.8332 243.191 64.0264 243.447 64.1691C244.492 64.7307 245.207 64.6299 245.192 64.6838C245.192 64.6902 245.151 64.6952 245.07 64.6994C244.989 64.7044 244.868 64.7023 244.709 64.6888C244.395 64.659 243.921 64.5759 243.378 64.2954C243.107 64.157 242.824 63.9646 242.55 63.7125C242.27 63.4605 242.038 63.1346 241.765 62.813C241.224 62.1498 240.613 61.4022 239.94 60.5793C239.205 59.8026 238.659 58.5594 238.873 57.2522C238.969 56.5905 239.273 56.0012 239.494 55.375C239.735 54.7495 239.982 54.1069 240.236 53.4474C240.37 53.1158 240.477 52.7885 240.642 52.4384C240.808 52.0984 241.026 51.7789 241.29 51.4941C241.814 50.924 242.528 50.508 243.315 50.3319C244.094 50.1941 244.853 50.0891 245.641 49.9634C246.034 49.903 246.429 49.842 246.827 49.7809C247.22 49.7277 247.624 49.6332 248.06 49.6389C248.916 49.6375 249.756 49.9265 250.419 50.4284C250.751 50.6734 251.042 50.9964 251.276 51.3024C251.52 51.6077 251.762 51.9109 252.002 52.2112C252.481 52.8119 252.952 53.4026 253.413 53.9806C253.908 54.5415 254.268 55.2607 254.384 55.9863C254.511 56.7141 254.418 57.4581 254.157 58.1021C253.912 58.7241 253.672 59.329 253.442 59.914C253.211 60.4977 252.987 61.0614 252.772 61.6045C252.571 62.164 252.244 62.6695 251.854 63.0572C251.074 63.8588 250.031 64.1478 249.199 64.2145C248.37 64.3295 247.649 64.4296 247.043 64.5134C246.45 64.5901 245.993 64.6583 245.677 64.6817C245.357 64.6966 245.192 64.6966 245.192 64.6838Z" fill="#263238"/>
<path d="M314.297 55.4148C314.37 55.4787 313.58 56.5451 312.471 57.7549C311.36 58.9669 310.303 59.7912 310.238 59.7145C310.17 59.6364 311.1 58.7028 312.2 57.5036C313.299 56.3051 314.217 55.3445 314.297 55.4148Z" fill="#263238"/>
<path d="M300.997 51.3322C301.09 51.2995 301.579 52.4845 301.946 54.0174C302.316 55.5503 302.419 56.8276 302.321 56.8411C302.217 56.8567 301.952 55.6178 301.586 54.104C301.224 52.5896 300.897 51.3656 300.997 51.3322Z" fill="#263238"/>
<path d="M295.708 62.3166C295.667 62.4138 294.471 61.9928 292.981 61.5342C291.492 61.0705 290.268 60.7411 290.289 60.6381C290.308 60.5409 291.582 60.7113 293.09 61.1813C294.6 61.6463 295.747 62.2257 295.708 62.3166Z" fill="#263238"/>
<path d="M294.194 74.633C294.116 74.5677 294.765 73.6603 295.644 72.6067C296.524 71.553 297.3 70.7521 297.379 70.8174C297.457 70.8828 296.808 71.7902 295.928 72.8438C295.049 73.8974 294.272 74.699 294.194 74.633Z" fill="#263238"/>
<path d="M306.141 78.5224C306.04 78.538 305.817 77.5127 305.642 76.2326C305.467 74.9518 305.407 73.9045 305.508 73.8924C305.61 73.8804 305.833 74.9056 306.008 76.1822C306.182 77.4588 306.242 78.5067 306.141 78.5224Z" fill="#263238"/>
<path d="M316.231 69.4239C316.194 69.519 315.257 69.2471 314.139 68.8168C313.019 68.3866 312.142 67.9599 312.179 67.8647C312.216 67.7696 313.152 68.0408 314.271 68.4718C315.391 68.902 316.268 69.328 316.231 69.4239Z" fill="#263238"/>
<path d="M457.049 123.864C461.857 118.075 466.657 112.225 470.398 105.693C474.14 99.1621 476.803 91.8604 476.979 84.3344C477.005 83.1935 476.514 75.2713 475.418 74.9553C474.635 74.7288 474.098 81.7216 473.456 82.2243C467.332 87.0232 463.351 94.1452 461.062 101.585C458.773 109.025 457.689 116.106 457.049 123.864Z" fill="#263238"/>
<path d="M394.496 167.901C396.412 162.941 405.835 138.11 405.797 138.095C405.797 138.095 389.547 129.628 395.125 112.392C397.82 104.065 404.764 87.3712 411.223 72.3369C418.165 56.178 436.345 48.072 452.994 53.6994L454.649 54.2582C472.139 61.3319 475.907 80.1512 468.359 97.4553L433.625 178.04L403.169 168.618L394.496 167.901Z" fill="#FFBF9D"/>
<path d="M405.797 138.096C405.797 138.096 416.392 142.384 430.354 139.035C430.354 139.035 420.692 149.961 404.102 142.631L405.797 138.096Z" fill="#FF5B5B"/>
<path d="M411.217 88.9131C410.734 90.1919 411.419 91.6559 412.745 92.1848C414.068 92.7123 415.532 92.1067 416.015 90.828C416.497 89.5493 415.814 88.0846 414.491 87.5563C413.166 87.0267 411.7 87.6344 411.217 88.9131Z" fill="#263238"/>
<path d="M412.484 80.7006C412.68 81.1231 414.999 80.3754 417.632 81.2729C420.275 82.132 421.751 84.1427 422.145 83.9162C422.334 83.8211 422.22 83.1388 421.584 82.2406C420.961 81.3496 419.748 80.2775 418.103 79.7293C416.458 79.1841 414.875 79.3218 413.872 79.6725C412.852 80.0219 412.383 80.5068 412.484 80.7006Z" fill="#263238"/>
<path d="M434.338 98.2179C433.856 99.4966 434.54 100.961 435.865 101.489C437.188 102.016 438.652 101.411 439.135 100.132C439.618 98.8533 438.934 97.3886 437.611 96.8604C436.286 96.3314 434.821 96.9392 434.338 98.2179Z" fill="#263238"/>
<path d="M437.939 90.4929C438.135 90.9154 440.456 90.1699 443.087 91.0666C445.73 91.9257 447.206 93.9364 447.601 93.7099C447.789 93.6141 447.678 92.9339 447.04 92.035C446.418 91.1433 445.204 90.0712 443.56 89.523C441.916 88.9778 440.331 89.1155 439.329 89.4662C438.31 89.8149 437.839 90.2998 437.939 90.4929Z" fill="#263238"/>
<path d="M421.647 107.566C421.71 107.421 420.167 106.584 417.628 105.347C416.978 105.05 416.386 104.701 416.428 104.203C416.433 103.663 416.96 103.032 417.55 102.358C418.734 100.941 419.971 99.4574 421.271 97.9018C426.498 91.5338 430.524 86.2053 430.267 85.9965C430.008 85.7878 425.562 90.7805 420.335 97.1492C419.063 98.7254 417.848 100.227 416.688 101.665C416.176 102.344 415.444 103.064 415.447 104.19C415.459 104.755 415.83 105.287 416.221 105.549C416.608 105.827 416.984 105.962 417.311 106.095C419.933 107.14 421.586 107.713 421.647 107.566Z" fill="#263238"/>
<path d="M428.788 112.012C428.367 111.843 427.396 114.704 424.262 115.908C421.131 117.121 418.19 115.769 418.032 116.162C417.932 116.328 418.524 116.947 419.799 117.418C421.047 117.888 423.028 118.105 424.945 117.368C426.859 116.626 428.062 115.181 428.557 114.039C429.069 112.879 428.989 112.062 428.788 112.012Z" fill="#263238"/>
<path d="M441.695 79.8379C441.713 80.6431 444.459 81.1926 447.425 82.6105C450.419 83.9687 452.607 85.7174 453.235 85.2133C453.521 84.9677 453.314 84.1455 452.54 83.1103C451.775 82.0794 450.403 80.8816 448.617 80.0474C446.829 79.2167 445.031 78.9377 443.75 79.015C442.46 79.0896 441.697 79.4602 441.695 79.8379Z" fill="#263238"/>
<path d="M416.532 72.3C416.794 73.0562 418.819 73.0477 421.012 73.7562C423.229 74.3881 424.907 75.5213 425.544 75.0385C425.832 74.7978 425.745 74.0992 425.128 73.2592C424.523 72.425 423.347 71.5134 421.832 71.0519C420.316 70.5925 418.833 70.6961 417.866 71.0533C416.888 71.4083 416.427 71.9394 416.532 72.3Z" fill="#263238"/>
<path d="M462.671 109.693C463.007 109.665 475.631 110.187 471.298 121.795C466.964 133.404 456.215 126.655 456.319 126.314C456.423 125.974 462.671 109.693 462.671 109.693Z" fill="#FFBF9D"/>
<path d="M461.503 123.242C461.568 123.223 461.653 123.459 461.936 123.743C462.212 124.02 462.745 124.34 463.435 124.339C464.828 124.347 466.586 122.786 467.424 120.715C467.847 119.67 468.002 118.581 467.939 117.608C467.902 116.627 467.575 115.828 466.998 115.487C466.437 115.116 465.863 115.322 465.599 115.596C465.322 115.862 465.309 116.121 465.241 116.118C465.197 116.135 465.065 115.831 465.337 115.386C465.471 115.173 465.709 114.951 466.065 114.83C466.427 114.707 466.88 114.745 467.292 114.953C468.163 115.349 468.661 116.473 468.731 117.541C468.848 118.632 468.699 119.865 468.223 121.039C467.276 123.351 465.263 125.091 463.405 124.949C462.51 124.857 461.921 124.357 461.671 123.951C461.419 123.53 461.455 123.248 461.503 123.242Z" fill="#FF5B5B"/>
<path d="M426.049 56.0438C424.574 54.2922 432.513 50.3844 437.91 50.0628C446.068 49.5764 457.422 51.7085 463.131 55.9877C470.005 61.1395 474.94 67.4414 476.118 75.9558C477.297 84.4701 475.614 93.2159 472.313 101.151C471.307 103.572 470.075 106.026 467.975 107.593C465.38 109.531 461.665 109.953 460.448 113.533C460.003 114.842 459.136 116.003 457.893 116.604C454.916 118.045 453.139 114.935 452.763 112.356C451.96 106.849 453.751 101.33 455.518 96.0523C456.774 92.3014 458.069 88.4745 460.468 85.3299C461.772 83.6188 463.379 82.1455 464.587 80.3641C465.795 78.5835 466.588 76.3399 465.983 74.2738C465.884 73.9379 465.683 73.4842 465.408 72.9624C463.236 68.8337 458.983 66.2138 454.323 66.0903C446.93 65.895 434.495 65.0679 432.439 61.7423C429.482 56.9569 429.278 54.4988 429.278 54.4988L426.049 56.0438Z" fill="#263238"/>
<path d="M464.634 48.9061C465.378 49.2838 482.808 60.0624 482.692 75.7796C482.577 91.4969 479.704 95.3458 479.704 95.3458C479.704 95.3458 480.57 96.3902 481.093 97.7236C481.561 98.9185 478.887 102.963 476.593 101.613C460.944 87.0807 439.38 78.7346 414.78 71.1107L396.222 64.4622C390.795 63.2723 389.439 61.2552 392.091 60.7021C394.124 60.2782 410.978 59.4255 410.978 59.4255L414.617 58.3037L425.985 50.2722C425.985 50.2722 425.545 48.4588 427.853 47.8688C430.161 47.2788 449.957 41.4504 464.634 48.9061Z" fill="#FF5B5B"/>
<path d="M414.619 58.3037C414.619 58.3037 414.866 58.4024 415.344 58.5593C415.915 58.7418 416.607 58.9633 417.44 59.2296C419.272 59.7741 421.879 60.6964 425.082 61.8786C431.454 64.3153 440.101 68.1784 449.022 73.5765C457.979 78.9157 465.59 84.5325 471.023 88.6711C473.746 90.7358 475.915 92.4526 477.422 93.6291C478.113 94.1672 478.685 94.6138 479.159 94.9823C479.558 95.2883 479.778 95.4367 479.778 95.4367C479.778 95.4367 479.586 95.2535 479.2 94.9305C478.737 94.5485 478.177 94.0863 477.502 93.5289C476.02 92.3219 473.873 90.5768 471.166 88.4865C465.766 84.2975 458.166 78.6424 449.191 73.2932C440.253 67.8845 431.568 64.0448 425.163 61.6599C418.735 59.3098 414.619 58.3037 414.619 58.3037Z" fill="#263238"/>
<g opacity="0.3">
<path d="M479.038 63.1537C479.038 63.1537 459.804 52.8473 449.177 54.0969C449.591 54.0408 450.005 53.984 450.419 53.9279C447.112 54.2034 443.805 54.4789 440.499 54.7551C438.823 54.895 436.899 54.9447 435.746 53.7199C435.746 53.7199 441.77 51.1653 451.28 51.2143C460.791 51.2626 474.747 54.6784 479.038 63.1537Z" fill="black"/>
</g>
<path d="M479.297 63.3624C479.297 63.3624 478.864 62.6581 477.883 61.5377C476.906 60.4202 475.39 58.8646 473.217 57.3168C471.063 55.7548 468.253 54.2084 464.92 53.0625C461.606 51.918 457.716 51.0979 453.641 51.4948C451.609 51.6666 449.664 52.0671 447.795 52.4583C445.932 52.8828 444.122 53.1974 442.418 53.6717C440.726 54.1466 439.143 54.6713 437.604 54.819C436.059 55.0356 434.653 54.6642 433.396 54.2588C428.367 52.6052 425.649 50.5114 425.985 50.2715C425.988 50.2587 425.971 50.5072 426.249 50.8047C426.521 51.0887 426.971 51.4657 427.608 51.8519C428.875 52.6336 430.801 53.6191 433.324 54.4818C434.568 54.9035 436.053 55.3039 437.632 55.0931C439.21 54.9525 440.818 54.4292 442.5 53.9663C444.179 53.5076 446.003 53.196 447.862 52.7763C449.728 52.3901 451.663 51.9939 453.669 51.8249C457.689 51.4337 461.525 52.2318 464.822 53.3514C468.131 54.4718 470.927 55.9827 473.082 57.5085C475.254 59.0187 476.785 60.5374 477.787 61.6237C478.287 62.1689 478.66 62.6077 478.902 62.9137C479.152 63.2148 479.297 63.3624 479.297 63.3624Z" fill="#263238"/>
<g opacity="0.3">
<path d="M482.443 82.2733C478.801 80.9917 476.357 79.0911 473.004 77.0505C469.432 74.8765 465.835 72.8906 462.371 70.5483C459.742 68.7705 456.555 66.8925 455.385 64.147C454.591 65.5684 454.572 67.0977 455.317 68.5454C456.061 69.9931 459.223 72.5001 460.569 73.416C468.237 78.6331 473.565 82.198 482.136 85.8282C482.37 84.8953 482.443 82.2733 482.443 82.2733Z" fill="black"/>
</g>
<path d="M482.632 74.0367C484.6 75.8365 485.787 77.0016 485.177 78.9967C484.669 80.6574 483.647 82.551 481.933 82.2819C481.41 82.2002 480.94 81.9276 480.483 81.6599C472.663 77.0755 464.843 72.491 457.023 67.9065C456.23 67.4415 455.377 66.9075 455.075 66.0385C454.61 64.7016 455.775 63.2411 457.139 62.8698C458.503 62.4985 459.947 62.9039 461.292 63.3391C468.94 65.8141 475.914 69.6212 482.632 74.0367Z" fill="#FF5B5B"/>
<path d="M455.336 66.5417C455.384 66.5275 454.991 66.1122 455.036 65.2083C455.073 64.3585 455.668 62.964 457.164 62.3804C458.669 61.8699 460.664 62.2121 462.619 63.0016C464.605 63.7983 466.782 64.7049 469.029 65.7323C473.534 67.7721 477.425 70.0058 480.074 71.8681C481.41 72.7833 482.44 73.5934 483.152 74.155C483.442 74.3893 483.709 74.6059 483.963 74.8111C484.151 74.958 484.254 75.0319 484.261 75.0234C484.269 75.0148 484.181 74.9247 484.006 74.7607C483.764 74.5391 483.509 74.307 483.233 74.0556C482.545 73.4621 481.532 72.62 480.208 71.6757C477.581 69.7559 473.685 67.4768 469.165 65.4306C466.91 64.3989 464.728 63.5008 462.727 62.7169C460.731 61.9338 458.68 61.588 457.078 62.1617C455.481 62.8234 454.907 64.3102 454.905 65.2034C454.897 65.6705 455.018 66.0213 455.124 66.2385C455.248 66.4487 455.33 66.5467 455.336 66.5417Z" fill="#263238"/>
<path d="M422.419 52.7927L438.391 57.914L435.516 61.9262L418.398 55.6334L422.419 52.7927Z" fill="white"/>
<path d="M441.57 75.1243C441.611 75.0427 434.888 71.6013 426.555 67.4393C418.22 63.2758 411.431 59.9687 411.391 60.0503C411.35 60.132 418.072 63.5726 426.407 67.7361C434.74 71.8981 441.53 75.2067 441.57 75.1243Z" fill="#263238"/>
<path d="M445.6 161.261L445.809 150.766L409.931 164.107C409.931 164.107 403.3 142.548 403.3 141.53L395.349 146.533L382.134 140.846L368.919 134.308L342.19 181.136L314.15 263.896L380.228 308.001L429.214 255.453L458.995 210.031L475.369 181.26L445.6 161.261Z" fill="#FF5B5B"/>
<path d="M406.742 163.955C406.721 163.955 406.703 163.587 406.687 162.905C406.678 162.17 406.666 161.184 406.65 159.962L406.812 160.065C404.067 161.398 399.939 163.799 396.008 167.47L395.721 167.739L395.699 167.346C395.673 166.879 395.644 166.381 395.617 165.879C395.329 160.731 395.089 156.071 394.933 152.696C394.865 151.049 394.81 149.696 394.769 148.699C394.758 148.261 394.75 147.901 394.743 147.611C394.74 147.362 394.746 147.231 394.758 147.23C394.771 147.23 394.791 147.36 394.816 147.607C394.842 147.896 394.873 148.254 394.911 148.691C394.982 149.687 395.077 151.037 395.193 152.681C395.415 156.052 395.696 160.71 395.984 165.857C396.012 166.36 396.039 166.858 396.066 167.325L395.756 167.2C399.727 163.503 403.921 161.127 406.713 159.86L406.879 159.785L406.875 159.963C406.847 161.185 406.824 162.171 406.807 162.905C406.786 163.588 406.764 163.955 406.742 163.955Z" fill="#263238"/>
<path d="M442.292 161.766C442.297 161.777 442.157 161.854 441.884 161.988C441.574 162.135 441.176 162.324 440.682 162.559C439.59 163.058 438.082 163.75 436.236 164.596C432.43 166.3 427.242 168.623 421.51 171.189C419.054 172.274 416.7 173.315 414.513 174.281L414.215 174.414L414.271 174.093C414.973 170.093 415.116 166.565 415.088 163.987L415.254 164.087C413.865 164.763 412.751 165.305 411.942 165.698C411.581 165.867 411.289 166.003 411.055 166.112C410.852 166.202 410.745 166.244 410.74 166.235C410.735 166.225 410.833 166.164 411.027 166.055C411.253 165.932 411.536 165.778 411.887 165.588C412.684 165.171 413.782 164.597 415.151 163.882L415.311 163.798L415.317 163.982C415.399 166.57 415.297 170.121 414.613 174.152L414.372 173.963C416.555 172.99 418.907 171.943 421.36 170.85C427.109 168.322 432.313 166.034 436.13 164.356C437.996 163.554 439.52 162.899 440.623 162.426C441.128 162.217 441.536 162.049 441.852 161.918C442.135 161.807 442.287 161.754 442.292 161.766Z" fill="#263238"/>
<path d="M379.566 317.198H109.376C103.669 317.198 99.043 312.567 99.043 306.856V119.6C99.043 113.888 103.669 109.258 109.376 109.258H379.565C385.272 109.258 389.898 113.888 389.898 119.6V306.856C389.899 312.567 385.272 317.198 379.566 317.198Z" fill="#455A64"/>
<path d="M390.172 321.964H100.3C93.3285 321.964 87.6758 316.306 87.6758 309.327V303.769H402.796V309.327C402.796 316.306 397.144 321.964 390.172 321.964Z" fill="#455A64"/>
<path d="M381.279 117.518H106.852V293.122H381.279V117.518Z" fill="#263238"/>
<path d="M215.799 301.819L219.709 308.543H274.733L278.364 301.819H215.799Z" fill="#263238"/>
<path d="M373.869 292.56H114.826C113.543 292.56 112.504 291.519 112.504 290.236V125.787C112.504 124.504 113.543 123.463 114.826 123.463H373.87C375.152 123.463 376.191 124.503 376.191 125.787V290.236C376.191 291.519 375.152 292.56 373.869 292.56Z" fill="#EBEBEB"/>
<path d="M375.908 292.807H112.221L112.503 136.1H375.908V292.807Z" fill="#FAFAFA"/>
<path d="M134.659 129.994C134.659 131.251 133.686 132.271 132.488 132.271C131.288 132.271 130.316 131.251 130.316 129.994C130.316 128.736 131.288 127.718 132.488 127.718C133.686 127.718 134.659 128.736 134.659 129.994Z" fill="#263238"/>
<path d="M121.498 129.994C121.498 131.251 120.526 132.271 119.326 132.271C118.127 132.271 117.154 131.251 117.154 129.994C117.154 128.736 118.127 127.718 119.326 127.718C120.526 127.718 121.498 128.736 121.498 129.994Z" fill="#263238"/>
<path d="M128.262 129.994C128.262 131.251 127.291 132.271 126.091 132.271C124.892 132.271 123.92 131.251 123.92 129.994C123.92 128.736 124.892 127.718 126.091 127.718C127.291 127.718 128.262 128.736 128.262 129.994Z" fill="#263238"/>
<path d="M387.4 301.819C387.4 301.932 322.844 302.023 243.228 302.023C163.585 302.023 99.043 301.932 99.043 301.819C99.043 301.707 163.585 301.615 243.228 301.615C322.844 301.615 387.4 301.707 387.4 301.819Z" fill="#263238"/>
<path d="M216.023 166.162C220.361 163.538 224.979 161.548 229.742 160.194L232.568 146.602L255.51 146.199L258.812 159.682C263.62 160.868 268.305 162.694 272.732 165.164L284.328 157.557L300.835 173.511L293.648 185.375C296.271 189.718 298.258 194.342 299.61 199.11L313.188 201.938L313.591 224.902L300.12 228.208C298.935 233.02 297.111 237.709 294.644 242.14L302.243 253.747L286.306 270.271L274.452 263.077C270.114 265.701 265.494 267.69 260.731 269.044L257.904 282.636L234.963 283.039L231.661 269.555C226.853 268.368 222.168 266.543 217.741 264.074L206.145 271.681L189.637 255.728L196.824 243.864C194.203 239.52 192.215 234.898 190.862 230.13L177.283 227.301L176.881 204.338L190.352 201.031C191.536 196.22 193.362 191.531 195.828 187.099L188.229 175.491L204.167 158.967L216.023 166.162ZM228.253 196.754C218.81 206.544 219.083 222.142 228.864 231.593C238.645 241.044 254.228 240.769 263.67 230.98C273.112 221.19 272.839 205.592 263.058 196.141C253.278 186.69 237.696 186.964 228.253 196.754Z" fill="#E0E0E0"/>
<path d="M307.674 174.925C307.989 173.205 308.532 171.557 309.271 170.018L306.414 166.181L311.555 160.165L315.784 162.394C317.189 161.423 318.731 160.631 320.38 160.052L321.069 155.318L328.955 154.702L330.37 159.27C332.088 159.586 333.735 160.129 335.273 160.87L339.105 158.011L345.117 163.156L342.89 167.39C343.859 168.796 344.651 170.339 345.229 171.989L349.958 172.68L350.574 180.572L346.011 181.989C345.696 183.709 345.152 185.356 344.412 186.896L347.27 190.733L342.129 196.75L337.899 194.52C336.494 195.491 334.953 196.283 333.304 196.862L332.614 201.595L324.728 202.212L323.313 197.643C321.595 197.327 319.949 196.784 318.41 196.044L314.577 198.904L308.566 193.758L310.794 189.524C309.824 188.118 309.033 186.575 308.454 184.925L303.725 184.235L303.109 176.342L307.674 174.925ZM318.36 177.318C317.882 182.977 322.81 187.412 328.286 186.464C332.02 185.818 334.946 182.66 335.266 178.881C335.746 173.222 330.817 168.784 325.338 169.734C321.605 170.381 318.68 173.539 318.36 177.318Z" fill="#E0E0E0"/>
<path d="M134.927 254.198C134.988 252.135 135.327 250.115 135.914 248.187L131.894 244.222L136.816 236.282L142.15 238.125C143.616 236.741 145.273 235.54 147.093 234.569L147.051 228.923L156.141 226.792L158.609 231.868C160.671 231.929 162.689 232.268 164.616 232.857L168.576 228.834L176.509 233.761L174.668 239.1C176.05 240.566 177.249 242.225 178.219 244.047L183.86 244.006L185.99 253.104L180.918 255.574C180.858 257.637 180.519 259.657 179.931 261.585L183.951 265.55L179.029 273.491L173.694 271.647C172.229 273.031 170.572 274.231 168.752 275.202L168.794 280.848L159.704 282.979L157.236 277.903C155.174 277.842 153.157 277.503 151.23 276.914L147.269 280.938L139.336 276.011L141.177 270.672C139.795 269.206 138.596 267.546 137.626 265.725L131.985 265.767L129.855 256.668L134.927 254.198ZM148.075 256.759C149.337 262.15 154.725 265.496 160.111 264.233C165.496 262.97 168.839 257.577 167.577 252.186C166.315 246.795 160.927 243.448 155.541 244.711C150.156 245.975 146.813 251.368 148.075 256.759Z" fill="#E0E0E0"/>
<path d="M151.251 178.336C151.488 177.039 151.898 175.797 152.455 174.637L150.301 171.744L154.177 167.208L157.366 168.888C158.425 168.156 159.588 167.559 160.83 167.123L161.35 163.554L167.295 163.09L168.362 166.533C169.658 166.771 170.899 167.182 172.058 167.74L174.948 165.583L179.48 169.462L177.801 172.654C178.532 173.714 179.129 174.877 179.565 176.121L183.13 176.642L183.594 182.592L180.153 183.66C179.916 184.957 179.506 186.199 178.948 187.36L181.102 190.252L177.227 194.789L174.038 193.108C172.979 193.839 171.817 194.437 170.574 194.874L170.055 198.442L164.11 198.907L163.043 195.463C161.747 195.225 160.506 194.815 159.346 194.257L156.457 196.414L151.925 192.535L153.604 189.343C152.873 188.283 152.277 187.12 151.84 185.876L148.275 185.355L147.811 179.405L151.251 178.336ZM159.303 181.227C159.578 184.753 162.656 187.387 166.179 187.111C169.701 186.836 172.333 183.754 172.058 180.229C171.782 176.704 168.705 174.069 165.182 174.345C161.66 174.62 159.028 177.701 159.303 181.227Z" fill="#EBEBEB"/>
<path d="M307.973 242.413C308.178 241.299 308.529 240.233 309.008 239.235L307.157 236.751L310.486 232.854L313.225 234.298C314.135 233.669 315.133 233.156 316.201 232.781L316.648 229.716L321.754 229.317L322.671 232.275C323.784 232.479 324.85 232.832 325.846 233.311L328.328 231.458L332.221 234.791L330.778 237.533C331.406 238.443 331.919 239.442 332.294 240.51L335.356 240.958L335.755 246.069L332.799 246.986C332.595 248.1 332.243 249.167 331.764 250.164L333.615 252.649L330.286 256.546L327.547 255.102C326.637 255.73 325.639 256.243 324.571 256.618L324.124 259.683L319.018 260.082L318.101 257.124C316.988 256.919 315.922 256.568 314.926 256.088L312.444 257.94L308.551 254.608L309.994 251.866C309.366 250.956 308.854 249.956 308.478 248.888L305.416 248.44L305.018 243.329L307.973 242.413ZM314.89 244.896C315.126 247.924 317.771 250.188 320.796 249.951C323.821 249.715 326.083 247.068 325.846 244.04C325.61 241.012 322.965 238.748 319.94 238.985C316.915 239.222 314.654 241.868 314.89 244.896Z" fill="#EBEBEB"/>
<path d="M245.237 250.116H209.945C200.831 250.116 195.135 240.24 199.692 232.34L217.338 201.748L234.984 171.156C239.541 163.256 250.933 163.256 255.491 171.156L273.137 201.748L290.783 232.34C295.34 240.24 289.644 250.116 280.529 250.116H245.237Z" fill="#FF5B5B"/>
<path d="M283.226 235.875C283.226 235.875 283.325 236.057 283.502 236.423C283.637 236.803 283.86 237.384 283.859 238.187C283.879 238.979 283.682 239.995 283.034 240.977C282.705 241.458 282.271 241.931 281.705 242.302C281.134 242.664 280.436 242.915 279.675 242.966C273.661 243.031 264.977 243.02 254.237 243.046C243.496 243.058 230.711 243.071 216.515 243.086C214.74 243.088 212.943 243.088 211.126 243.09C209.212 243.132 207.393 241.77 206.778 239.941C206.453 239.036 206.383 238.032 206.599 237.081C206.661 236.846 206.737 236.614 206.814 236.383C206.917 236.164 207.016 235.936 207.125 235.723L207.805 234.477C208.715 232.812 209.633 231.131 210.56 229.435C214.267 222.652 218.106 215.628 222.037 208.435C225.971 201.24 229.813 194.215 233.524 187.431C235.379 184.04 237.203 180.708 238.988 177.446C239.444 176.632 239.86 175.816 240.34 175.015C240.826 174.205 241.508 173.505 242.326 173.042C243.953 172.092 246.006 172.026 247.663 172.802C248.49 173.188 249.23 173.765 249.772 174.489C250.305 175.231 250.674 176.011 251.099 176.766C251.928 178.286 252.746 179.785 253.552 181.262C255.163 184.216 256.728 187.086 258.241 189.859C261.265 195.406 264.082 200.574 266.653 205.292C271.784 214.727 275.936 222.364 278.811 227.652C280.236 230.29 281.343 232.34 282.1 233.74C282.469 234.432 282.752 234.962 282.947 235.328C283.137 235.686 283.226 235.875 283.226 235.875C283.226 235.875 283.115 235.699 282.915 235.346C282.712 234.983 282.419 234.46 282.036 233.776C281.265 232.383 280.138 230.344 278.686 227.721C275.787 222.446 271.599 214.829 266.425 205.418C263.841 200.706 261.012 195.545 257.974 190.006C256.456 187.235 254.885 184.37 253.268 181.418C252.459 179.942 251.639 178.444 250.808 176.926C250.385 176.175 249.998 175.374 249.505 174.693C248.994 174.011 248.298 173.472 247.52 173.111C245.963 172.382 244.026 172.447 242.502 173.341C241.734 173.776 241.097 174.433 240.64 175.196C240.175 175.971 239.749 176.806 239.298 177.615C237.516 180.879 235.695 184.212 233.842 187.605C230.133 194.391 226.294 201.416 222.361 208.612C218.427 215.804 214.587 222.826 210.878 229.609C209.95 231.304 209.03 232.985 208.12 234.649C207.684 235.496 207.129 236.277 206.945 237.162C206.744 238.044 206.808 238.977 207.11 239.821C207.686 241.528 209.358 242.778 211.126 242.743C212.943 242.745 214.74 242.745 216.515 242.747C230.711 242.762 243.496 242.775 254.237 242.786C264.966 242.803 273.651 242.816 279.666 242.824C280.403 242.78 281.08 242.543 281.637 242.197C282.191 241.841 282.617 241.384 282.944 240.917C283.586 239.964 283.793 238.97 283.786 238.189C283.757 236.596 283.158 235.887 283.226 235.875Z" fill="#263238"/>
<path d="M239.523 229.336C239.523 226.204 242.017 223.868 245.571 223.868C249.124 223.868 251.564 226.204 251.564 229.336C251.564 232.416 249.124 234.912 245.571 234.912C242.017 234.912 239.523 232.416 239.523 229.336ZM239.577 197.266H251.565L249.549 220.894H241.539L239.577 197.266Z" fill="white"/>
<path d="M246.928 167.642C246.901 167.717 246.102 167.245 244.681 167.179C243.282 167.097 241.271 167.558 239.566 168.891C237.864 170.235 236.828 171.973 236.184 173.237C235.541 174.516 235.239 175.358 235.181 175.337C235.158 175.329 235.207 175.109 235.329 174.724C235.451 174.338 235.651 173.787 235.949 173.124C236.54 171.815 237.566 170.001 239.339 168.6C241.123 167.204 243.246 166.764 244.699 166.919C245.431 166.988 246.006 167.162 246.378 167.33C246.751 167.495 246.938 167.624 246.928 167.642Z" fill="white"/>
<path d="M232.172 180.623C232.084 180.571 232.431 179.82 232.949 178.946C233.466 178.071 233.955 177.405 234.043 177.457C234.131 177.509 233.783 178.26 233.266 179.134C232.75 180.008 232.26 180.675 232.172 180.623Z" fill="white"/>
<g opacity="0.3">
<path d="M262.94 184.073L207.979 217.972L200.84 230.349L266.821 190.8L262.94 184.073Z" fill="white"/>
</g>
<g opacity="0.3">
<path d="M271.594 199.094L198.742 242.109C198.951 243.085 199.605 244.345 200.325 245.174L272.882 201.328L271.594 199.094Z" fill="white"/>
</g>
<path d="M451.644 279.31C445.808 272.873 436.962 270.805 429.198 273.295L422.407 265.837L421.462 264.779L367.745 205.787C370.974 198.293 369.775 189.28 363.94 182.843C358.977 177.368 351.836 175.05 345.035 176.01L342.411 177.054L351.548 183.196L351.064 193.168L343.677 199.877L333.714 199.392L327.201 192.207L324.509 193.26C323.738 199.278 327.769 206.857 332.162 211.703C337.988 218.131 346.816 220.202 354.573 217.73L409.189 277.71L410.869 279.574L416.045 285.259C412.834 292.746 414.038 301.742 419.864 308.17C424.239 312.997 430.042 316.22 436.078 316.056L438.769 315.003L432.256 307.817L432.741 297.845L440.128 291.136L450.09 291.621L453.912 299.86L456.604 298.807C458.219 292.124 456.606 284.786 451.644 279.31Z" fill="#E0E0E0"/>
<g opacity="0.3">
<path d="M451.644 279.31C445.808 272.873 436.962 270.805 429.198 273.295L422.407 265.837L421.462 264.779L367.745 205.787C370.974 198.293 369.775 189.28 363.94 182.843C358.977 177.368 351.836 175.05 345.035 176.01L342.411 177.054L351.548 183.196L351.064 193.168L343.677 199.877L333.714 199.392L327.201 192.207L324.509 193.26C323.738 199.278 327.769 206.857 332.162 211.703C337.988 218.131 346.816 220.202 354.573 217.73L409.189 277.71L410.869 279.574L416.045 285.259C412.834 292.746 414.038 301.742 419.864 308.17C424.239 312.997 430.042 316.22 436.078 316.056L438.769 315.003L432.256 307.817L432.741 297.845L440.128 291.136L450.09 291.621L453.912 299.86L456.604 298.807C458.219 292.124 456.606 284.786 451.644 279.31Z" fill="black"/>
</g>
<path d="M448.953 280.364C443.117 273.926 434.272 271.858 426.507 274.348L419.716 266.891L418.771 265.832L365.054 206.841C368.282 199.347 367.084 190.334 361.249 183.896C356.285 178.422 349.145 176.104 342.343 177.064L348.857 184.249L348.373 194.221L340.986 200.93L331.023 200.445L324.51 193.259C322.896 199.941 324.508 207.28 329.471 212.755C335.298 219.183 344.125 221.254 351.882 218.782L406.498 278.762L408.177 280.627L413.353 286.312C410.143 293.799 411.347 302.794 417.173 309.223C422.136 314.698 429.277 317.015 436.078 316.055L429.565 308.87L430.049 298.898L437.436 292.189L447.399 292.674L453.912 299.859C455.528 293.177 453.916 285.839 448.953 280.364Z" fill="#E0E0E0"/>
<path d="M448.952 280.364C448.952 280.364 449.261 280.707 449.853 281.392C450.399 282.111 451.24 283.176 452.073 284.745C452.909 286.306 453.734 288.371 454.229 290.932C454.678 293.489 454.781 296.563 453.987 299.878L453.953 300.019L453.856 299.912C451.925 297.787 449.723 295.366 447.332 292.737L447.395 292.766C444.322 292.621 440.98 292.462 437.432 292.294L437.507 292.267C435.201 294.366 432.723 296.621 430.127 298.984L430.165 298.904C430.017 302.002 429.857 305.375 429.69 308.876L429.658 308.787C431.675 311.008 433.892 313.449 436.178 315.967L436.346 316.152L436.098 316.187C432.728 316.669 429.122 316.352 425.715 315.117C422.31 313.893 419.119 311.739 416.645 308.823C414.152 305.931 412.378 302.268 411.745 298.3C411.095 294.343 411.556 290.102 413.208 286.25L413.236 286.42C395.022 266.422 374.095 243.445 351.747 218.907L351.939 218.958C348.178 220.16 343.961 220.33 339.949 219.295C335.935 218.279 332.17 216.021 329.329 212.872C326.939 210.237 325.223 207.02 324.374 203.605C323.516 200.192 323.514 196.593 324.333 193.217L324.414 192.879L324.648 193.136C326.834 195.547 329.004 197.943 331.16 200.322L331.034 200.262C334.38 200.425 337.701 200.587 340.996 200.748L340.865 200.794C343.352 198.537 345.813 196.302 348.253 194.087L348.194 194.212C348.358 190.851 348.52 187.529 348.68 184.241L348.726 184.369C346.531 181.946 344.361 179.552 342.214 177.182L341.989 176.934L342.32 176.889C346.329 176.346 350.437 176.899 354.039 178.5C357.647 180.084 360.751 182.645 362.956 185.768C365.175 188.88 366.537 192.533 366.867 196.225C367.215 199.915 366.604 203.615 365.201 206.904L365.173 206.733C391.794 236.028 413.221 259.607 426.566 274.293L426.481 274.27C430.324 273.048 433.978 273.088 436.978 273.619C439.983 274.216 442.378 275.27 444.143 276.352C445.925 277.423 447.076 278.513 447.858 279.213C448.589 279.971 448.952 280.364 448.952 280.364C448.952 280.364 448.567 279.991 447.828 279.244C447.039 278.556 445.881 277.479 444.099 276.425C442.335 275.359 439.946 274.323 436.956 273.743C433.971 273.228 430.342 273.201 426.531 274.426L426.482 274.443L426.446 274.404C413.076 259.741 391.609 236.199 364.937 206.949L364.868 206.873L364.909 206.778C366.288 203.536 366.887 199.891 366.541 196.257C366.212 192.622 364.869 189.028 362.682 185.966C360.508 182.892 357.451 180.375 353.901 178.818C350.356 177.245 346.314 176.703 342.37 177.239L342.475 176.947C344.623 179.315 346.793 181.708 348.991 184.131L349.04 184.185L349.037 184.259C348.878 187.549 348.717 190.869 348.554 194.231L348.551 194.306L348.495 194.356C346.056 196.572 343.595 198.808 341.11 201.066L341.054 201.116L340.979 201.112C337.684 200.953 334.362 200.792 331.016 200.629L330.94 200.625L330.889 200.569C328.733 198.191 326.561 195.796 324.375 193.385L324.69 193.305C323.886 196.623 323.889 200.162 324.732 203.517C325.567 206.873 327.252 210.034 329.602 212.625C332.396 215.721 336.095 217.939 340.041 218.938C343.984 219.957 348.132 219.789 351.827 218.609L351.939 218.573L352.019 218.66C374.354 243.21 395.269 266.197 413.472 286.206L413.542 286.282L413.502 286.376C411.871 290.171 411.412 294.35 412.049 298.251C412.669 302.163 414.412 305.777 416.869 308.632C419.307 311.512 422.451 313.64 425.811 314.854C429.171 316.077 432.732 316.396 436.062 315.925L435.982 316.145C433.701 313.624 431.488 311.179 429.475 308.954L429.44 308.916L429.443 308.865C429.616 305.363 429.784 301.991 429.937 298.894L429.939 298.846L429.974 298.814C432.576 296.457 435.058 294.207 437.369 292.114L437.4 292.085L437.444 292.087C440.992 292.264 444.333 292.431 447.406 292.585L447.444 292.587L447.469 292.615C449.852 295.252 452.046 297.68 453.972 299.811L453.841 299.844C454.641 296.556 454.551 293.5 454.117 290.954C453.636 288.406 452.828 286.346 452.006 284.785C451.188 283.215 450.359 282.145 449.824 281.42C449.241 280.725 448.952 280.364 448.952 280.364Z" fill="#263238"/>
<path d="M362.604 210.281C362.626 210.293 362.543 210.481 362.371 210.811C362.204 211.143 361.923 211.603 361.545 212.15C360.791 213.245 359.568 214.649 357.955 215.895C356.337 217.136 354.667 217.956 353.416 218.404C352.791 218.63 352.275 218.783 351.911 218.859C351.549 218.94 351.346 218.974 351.34 218.949C351.324 218.889 352.113 218.67 353.322 218.164C354.531 217.661 356.147 216.821 357.733 215.605C359.314 214.384 360.54 213.038 361.337 211.997C362.136 210.956 362.55 210.25 362.604 210.281Z" fill="#263238"/>
<path d="M422.591 235.903L402.157 226.388L383.918 224.111L390.617 229.758C390.617 229.758 367.04 237.983 366.626 239.837C366.213 241.692 368.489 246.673 372.641 245.754C372.641 245.754 370.305 248.567 371.278 251.72C372.25 254.873 374.398 255.443 378.362 254.711C378.362 254.711 375.665 258.752 377.78 260.811C379.894 262.872 383.183 262.348 383.183 262.348C383.183 262.348 383.222 267.27 385.82 267.7C388.418 268.131 395.654 267.621 398.354 266.787C401.054 265.952 412.079 262.544 412.079 262.544L421.024 260.58L422.591 235.903Z" fill="#FFBF9D"/>
<path d="M385.038 242.15C385.116 242.42 382.404 243.447 378.979 244.442C375.554 245.438 372.714 246.026 372.636 245.756C372.558 245.485 375.27 244.459 378.696 243.463C382.12 242.467 384.96 241.879 385.038 242.15Z" fill="#FF5B5B"/>
<path d="M388.509 251.862C388.591 252.132 386.435 253.019 383.697 253.845C380.957 254.67 378.671 255.121 378.59 254.851C378.509 254.582 380.663 253.694 383.404 252.869C386.142 252.042 388.429 251.592 388.509 251.862Z" fill="#FF5B5B"/>
<path d="M391.623 259.931C391.67 260.234 389.713 260.649 387.414 261.226C385.127 261.827 383.325 262.615 383.183 262.348C383.051 262.126 384.706 260.889 387.153 260.24C389.588 259.632 391.586 259.679 391.623 259.931Z" fill="#FF5B5B"/>
<path d="M394.199 228.975C394.275 229.251 391.598 230.223 388.291 231.365C384.98 232.503 382.273 233.385 382.163 233.121C382.056 232.866 384.615 231.551 387.959 230.401C391.302 229.248 394.127 228.708 394.199 228.975Z" fill="#FF5B5B"/>
<path d="M418.751 234.115L462.933 250.131L460.351 280.485L411.709 260.856L418.751 234.115Z" fill="#FFBF9D"/>
<path d="M475.439 180.998C475.439 180.998 481.2 186.958 484.553 197.672C487.882 208.31 503.727 253.801 503.323 268.255C502.906 283.199 492.855 293.863 470.765 287.957C457.583 284.434 441.883 278.736 441.883 278.736L453.043 242.006L461.775 244.209L447.675 217.716L475.439 180.998Z" fill="#FF5B5B"/>
<path d="M465.331 198.361C465.414 198.421 459.304 207.134 451.686 217.82C444.065 228.511 437.822 237.126 437.739 237.067C437.656 237.007 443.765 228.296 451.385 217.606C459.003 206.919 465.248 198.302 465.331 198.361Z" fill="#263238"/>
<path d="M482.234 249.234C482.218 249.26 481.853 249.047 481.162 248.73C480.473 248.41 479.444 248.018 478.133 247.658C476.824 247.295 475.234 246.956 473.47 246.572C471.701 246.181 469.767 245.753 467.736 245.303C463.669 244.393 459.993 243.549 457.336 242.92C456.056 242.609 454.997 242.351 454.193 242.156C453.454 241.968 453.047 241.851 453.053 241.827C453.058 241.802 453.476 241.87 454.226 242.015C455.036 242.182 456.104 242.4 457.395 242.664C460.067 243.228 463.752 244.033 467.82 244.943C469.848 245.402 471.78 245.839 473.547 246.24C475.305 246.642 476.892 247.007 478.206 247.406C479.519 247.802 480.549 248.237 481.225 248.601C481.566 248.778 481.821 248.934 481.988 249.047C482.157 249.159 482.241 249.223 482.234 249.234Z" fill="#263238"/>
<g opacity="0.3">
<path d="M493.529 250.832C493.354 249.078 492.042 247.597 490.489 246.764C488.936 245.931 487.157 245.641 485.412 245.401C477.472 244.311 469.447 244.008 461.438 243.708L462.178 244.03C472.064 245.856 481.764 248.685 491.083 252.459C491.62 252.677 492.229 252.897 492.757 252.661C493.402 252.372 493.599 251.536 493.529 250.832Z" fill="black"/>
</g>
<g opacity="0.3">
<path d="M311.493 109.99C304.047 108.723 295.14 110.886 287.694 109.618C286.581 109.429 285.364 109.257 284.386 109.821C283.21 110.498 282.804 112 282.746 113.356C282.587 117.108 284.321 120.811 287.027 123.412C289.733 126.012 293.335 127.567 297.034 128.195C300.007 128.7 303.201 128.603 305.852 127.166C310.48 124.657 312.719 115.114 311.493 109.99Z" fill="black"/>
</g>
<path d="M282.592 123.629C282.592 123.629 278.073 118.331 277.418 115.885C276.984 114.264 277.202 109.731 277.398 106.856C277.533 104.885 278.755 103.086 280.623 102.452C281.275 102.231 281.892 102.202 282.309 102.588C282.309 102.588 282.595 102.092 284.368 100.275C286.141 98.4586 286.983 97.2267 290.886 98.357C290.886 98.357 293.757 95.3232 295.408 95.5497C297.059 95.7769 298.696 96.259 298.696 96.259C298.696 96.259 304.988 95.9934 306.277 97.9935C306.842 98.8682 308.004 99.4795 309.134 99.8899C311.121 100.612 312.754 102.06 313.622 103.989C314.804 106.614 314.879 109.478 314.879 109.478L308.476 109.732C308.476 109.732 308.929 124.433 307.321 125.619C305.713 126.805 305.098 126.384 305.098 126.384C305.098 126.384 303.871 129.833 299.085 127.28C299.085 127.28 295.11 128.479 293.415 126.84C291.72 125.201 285.486 109.444 285.486 109.444L285.66 117.275C285.66 117.275 288.944 122.342 287.336 123.529C285.729 124.714 282.592 123.629 282.592 123.629Z" fill="#FFBF9D"/>
<path d="M290.565 103.701C290.589 103.693 290.718 104.023 290.929 104.624C291.156 105.296 291.447 106.155 291.793 107.184C292.508 109.349 293.47 112.349 294.512 115.669C295.562 118.987 296.408 122.025 297.392 124.072C297.867 125.1 298.345 125.886 298.694 126.415C299.041 126.946 299.263 127.221 299.237 127.242C299.227 127.25 299.163 127.189 299.049 127.065C298.932 126.942 298.77 126.754 298.577 126.498C298.188 125.989 297.668 125.213 297.157 124.185C296.098 122.136 295.208 119.091 294.159 115.78C293.118 112.46 292.195 109.448 291.544 107.262C291.242 106.219 290.99 105.348 290.793 104.667C290.622 104.053 290.54 103.709 290.565 103.701Z" fill="#FF5B5B"/>
<path d="M298.419 101.887C298.444 101.881 298.559 102.22 298.745 102.839C298.943 103.529 299.196 104.412 299.5 105.47C300.122 107.695 300.956 110.776 301.857 114.183C302.757 117.592 303.551 120.683 304.109 122.925C304.367 123.996 304.582 124.889 304.751 125.585C304.894 126.216 304.962 126.567 304.937 126.574C304.912 126.582 304.798 126.242 304.612 125.624C304.414 124.935 304.16 124.052 303.857 122.994C303.235 120.769 302.4 117.687 301.5 114.277C300.6 110.869 299.805 107.776 299.248 105.534C298.989 104.464 298.774 103.57 298.606 102.874C298.462 102.245 298.394 101.893 298.419 101.887Z" fill="#FF5B5B"/>
</svg>
