<svg width="28" height="28" viewBox="0 0 28 28" fill="none" xmlns="http://www.w3.org/2000/svg">
<path d="M23.6181 4.46941C23.4111 4.23957 23.1213 4.10135 22.8124 4.08517C22.5034 4.06898 22.2007 4.17613 21.9708 4.38308L11.1266 14.1422L6.07615 9.09175C5.96853 8.98032 5.83979 8.89144 5.69745 8.83029C5.55512 8.76915 5.40203 8.73697 5.24712 8.73562C5.09221 8.73427 4.93858 8.76379 4.7952 8.82245C4.65182 8.88111 4.52156 8.96774 4.41202 9.07729C4.30248 9.18683 4.21585 9.31709 4.15719 9.46047C4.09853 9.60385 4.06901 9.75747 4.07036 9.91238C4.0717 10.0673 4.10389 10.2204 4.16503 10.3627C4.22617 10.5051 4.31505 10.6338 4.42648 10.7414L10.2598 16.5747C10.4711 16.786 10.7554 16.9081 11.0541 16.9159C11.3528 16.9237 11.6431 16.8166 11.8651 16.6167L23.5318 6.11675C23.7617 5.90971 23.8999 5.61987 23.9161 5.31095C23.9323 5.00204 23.8251 4.69934 23.6181 4.46941Z" fill="#A3A3A3"/>
<path d="M21.9695 11.3831L11.1253 21.1423L6.07482 16.0918C5.85478 15.8793 5.56008 15.7617 5.25419 15.7644C4.94829 15.767 4.65567 15.8897 4.43937 16.106C4.22306 16.3223 4.10036 16.6149 4.0977 16.9208C4.09504 17.2267 4.21264 17.5214 4.42515 17.7415L10.2585 23.5748C10.4698 23.786 10.7541 23.9082 11.0528 23.916C11.3515 23.9238 11.6418 23.8167 11.8638 23.6168L23.5305 13.1168C23.7534 12.908 23.8855 12.6201 23.8985 12.3149C23.9114 12.0098 23.8042 11.7117 23.5999 11.4847C23.3955 11.2578 23.1103 11.12 22.8054 11.101C22.5006 11.082 22.2005 11.1833 21.9695 11.3831Z" fill="#A3A3A3"/>
</svg>
