<svg width="74" height="75" viewBox="0 0 74 75" fill="none" xmlns="http://www.w3.org/2000/svg">
<rect width="74" height="74.7789" rx="18" fill="white"/>
<path d="M32.7923 39.2731C32.6541 39.2731 29.7559 39.2739 28.4191 39.2726C27.731 39.2722 27.4855 39.0249 27.4855 38.3323C27.4846 36.5534 27.4841 34.7745 27.4855 32.9956C27.4859 32.3118 27.7455 32.0509 28.4249 32.0505C29.7616 32.0496 32.644 32.05 32.7923 32.05C32.7923 31.9281 32.7919 29.3599 32.7923 28.1771C32.7932 26.4286 33.1051 24.7548 33.9935 23.2223C34.903 21.6537 36.2265 20.5792 37.9227 19.9579C39.0091 19.5597 40.1368 19.4009 41.2896 19.4C42.7319 19.3991 44.1742 19.4005 45.617 19.4031C46.2369 19.404 46.5119 19.6781 46.5133 20.3025C46.5159 21.9758 46.5159 23.6491 46.5133 25.322C46.5124 25.9529 46.2488 26.2064 45.6148 26.2134C44.4325 26.2262 43.2493 26.2183 42.0684 26.2658C40.8755 26.2658 40.2481 26.8483 40.2481 28.083C40.2195 29.3889 40.2362 30.6961 40.2362 32.0496C40.348 32.0496 43.7426 32.0491 45.3292 32.0496C46.0499 32.0496 46.2963 32.2973 46.2963 33.022C46.2963 34.7912 46.2959 36.5609 46.2946 38.3301C46.2941 39.0443 46.0627 39.2722 45.3376 39.2726C43.7509 39.2735 40.3695 39.2731 40.2217 39.2731V53.5929C40.2217 54.3563 39.9815 54.5996 39.2282 54.5996C37.3916 54.5996 35.5546 54.6 33.7181 54.5996C33.0523 54.5996 32.7927 54.3409 32.7927 53.6751C32.7923 49.0116 32.7923 39.4367 32.7923 39.2731Z" fill="#3D6AD6"/>
</svg>
