<svg width="44" height="44" viewBox="0 0 44 44" fill="none" xmlns="http://www.w3.org/2000/svg">
<path d="M40.5969 18.382H24.2258C23.5039 18.382 22.9196 18.9664 22.9196 19.6883V24.9219C22.9196 25.6437 23.5039 26.2281 24.2258 26.2281H33.4469C32.4414 28.8492 30.5508 31.0406 28.1531 32.4328L32.0805 39.2391C38.3797 35.5953 42.1094 29.193 42.1094 22.0344C42.1094 21.0117 42.0321 20.2812 41.886 19.4648C41.7656 18.8375 41.2242 18.382 40.5969 18.382Z" fill="#167EE6"/>
<path d="M22.043 34.0828C17.5312 34.0828 13.5953 31.6164 11.4812 27.9727L4.67499 31.8914C8.13827 37.8984 14.6266 41.9375 22.043 41.9375C25.6867 41.9375 29.1156 40.9578 32.0805 39.2477V39.2391L28.1531 32.4328C26.3484 33.4812 24.2687 34.0828 22.043 34.0828Z" fill="#12B347"/>
<path d="M32.0719 39.2476V39.2391L28.1445 32.4328C26.3484 33.4726 24.2688 34.0828 22.043 34.0828V41.9375C25.6867 41.9375 29.1156 40.9578 32.0719 39.2476Z" fill="#0F993E"/>
<path d="M9.83125 21.8711C9.83125 19.6453 10.4414 17.5656 11.4813 15.7695L4.675 11.8508C2.95625 14.7984 1.97656 18.2187 1.97656 21.8711C1.97656 25.5234 2.95625 28.9437 4.675 31.8914L11.4813 27.9726C10.4328 26.1766 9.83125 24.0969 9.83125 21.8711Z" fill="#FFD500"/>
<path d="M22.043 9.65938C24.982 9.65938 27.6891 10.7078 29.7945 12.4438C30.3187 12.8734 31.075 12.8391 31.5476 12.3664L35.2516 8.6625C35.793 8.12109 35.75 7.23594 35.1742 6.7375C31.6422 3.66094 27.0445 1.80469 22.043 1.80469C14.6266 1.80469 8.13827 5.84375 4.67499 11.8508L11.4812 15.7695C13.5953 12.1258 17.5312 9.65938 22.043 9.65938Z" fill="#FF4B26"/>
<path d="M29.7945 12.4438C30.3188 12.8734 31.075 12.8391 31.5477 12.3664L35.2516 8.6625C35.793 8.12109 35.75 7.23594 35.1742 6.7375C31.6422 3.66094 27.0445 1.80469 22.043 1.80469V9.65938C24.982 9.65938 27.6891 10.6992 29.7945 12.4438Z" fill="#D93F21"/>
</svg>
