<svg width="22" height="22" viewBox="0 0 22 22" fill="none" xmlns="http://www.w3.org/2000/svg">
<g clip-path="url(#clip0_1139_9709)">
<path d="M1.83333 10.0833H11.9167C12.4029 10.0833 12.8692 9.89018 13.213 9.54636C13.5568 9.20255 13.75 8.73623 13.75 8.25V1.83333C13.75 1.3471 13.5568 0.880788 13.213 0.536971C12.8692 0.193154 12.4029 0 11.9167 0L1.83333 0C1.3471 0 0.880788 0.193154 0.536971 0.536971C0.193154 0.880788 0 1.3471 0 1.83333L0 8.25C0 8.73623 0.193154 9.20255 0.536971 9.54636C0.880788 9.89018 1.3471 10.0833 1.83333 10.0833ZM1.83333 1.83333H11.9167V8.25H1.83333V1.83333Z" fill="#B9BBBD"/>
<path d="M20.1673 0H17.4173C16.9311 0 16.4648 0.193154 16.121 0.536971C15.7771 0.880788 15.584 1.3471 15.584 1.83333V8.25C15.584 8.73623 15.7771 9.20255 16.121 9.54636C16.4648 9.89018 16.9311 10.0833 17.4173 10.0833H20.1673C20.6535 10.0833 21.1199 9.89018 21.4637 9.54636C21.8075 9.20255 22.0007 8.73623 22.0007 8.25V1.83333C22.0007 1.3471 21.8075 0.880788 21.4637 0.536971C21.1199 0.193154 20.6535 0 20.1673 0V0ZM20.1673 8.25H17.4173V1.83333H20.1673V8.25Z" fill="#B9BBBD"/>
<path d="M4.58333 11.917H1.83333C1.3471 11.917 0.880788 12.1101 0.536971 12.454C0.193154 12.7978 0 13.2641 0 13.7503L0 20.167C0 20.6532 0.193154 21.1195 0.536971 21.4633C0.880788 21.8072 1.3471 22.0003 1.83333 22.0003H4.58333C5.06956 22.0003 5.53588 21.8072 5.8797 21.4633C6.22351 21.1195 6.41667 20.6532 6.41667 20.167V13.7503C6.41667 13.2641 6.22351 12.7978 5.8797 12.454C5.53588 12.1101 5.06956 11.917 4.58333 11.917ZM4.58333 20.167H1.83333V13.7503H4.58333V20.167Z" fill="#B9BBBD"/>
<path d="M20.1667 11.917H10.0833C9.5971 11.917 9.13079 12.1101 8.78697 12.454C8.44315 12.7978 8.25 13.2641 8.25 13.7503V20.167C8.25 20.6532 8.44315 21.1195 8.78697 21.4633C9.13079 21.8072 9.5971 22.0003 10.0833 22.0003H20.1667C20.6529 22.0003 21.1192 21.8072 21.463 21.4633C21.8068 21.1195 22 20.6532 22 20.167V13.7503C22 13.2641 21.8068 12.7978 21.463 12.454C21.1192 12.1101 20.6529 11.917 20.1667 11.917ZM20.1667 20.167H10.0833V13.7503H20.1667V20.167Z" fill="#B9BBBD"/>
</g>
<defs>
<clipPath id="clip0_1139_9709">
<rect width="22" height="22" fill="white"/>
</clipPath>
</defs>
</svg>
