<svg width="22" height="22" viewBox="0 0 22 22" fill="none" xmlns="http://www.w3.org/2000/svg">
<g clip-path="url(#clip0_1141_9723)">
<path d="M17.4167 0.916748H4.58333C3.3682 0.918204 2.20326 1.40156 1.34403 2.26078C0.484808 3.12001 0.00145554 4.28495 0 5.50008L0 16.5001C0.00145554 17.7152 0.484808 18.8802 1.34403 19.7394C2.20326 20.5986 3.3682 21.082 4.58333 21.0834H17.4167C18.6318 21.082 19.7967 20.5986 20.656 19.7394C21.5152 18.8802 21.9985 17.7152 22 16.5001V5.50008C21.9985 4.28495 21.5152 3.12001 20.656 2.26078C19.7967 1.40156 18.6318 0.918204 17.4167 0.916748ZM4.58333 2.75008H17.4167C18.146 2.75008 18.8455 3.03981 19.3612 3.55554C19.8769 4.07126 20.1667 4.77074 20.1667 5.50008V6.41675H1.83333V5.50008C1.83333 4.77074 2.12306 4.07126 2.63879 3.55554C3.15451 3.03981 3.85399 2.75008 4.58333 2.75008ZM17.4167 19.2501H4.58333C3.85399 19.2501 3.15451 18.9604 2.63879 18.4446C2.12306 17.9289 1.83333 17.2294 1.83333 16.5001V8.25008H20.1667V16.5001C20.1667 17.2294 19.8769 17.9289 19.3612 18.4446C18.8455 18.9604 18.146 19.2501 17.4167 19.2501ZM17.4167 11.9167C17.4167 12.1599 17.3201 12.393 17.1482 12.5649C16.9763 12.7368 16.7431 12.8334 16.5 12.8334H5.5C5.25689 12.8334 5.02373 12.7368 4.85182 12.5649C4.67991 12.393 4.58333 12.1599 4.58333 11.9167C4.58333 11.6736 4.67991 11.4405 4.85182 11.2686C5.02373 11.0967 5.25689 11.0001 5.5 11.0001H16.5C16.7431 11.0001 16.9763 11.0967 17.1482 11.2686C17.3201 11.4405 17.4167 11.6736 17.4167 11.9167ZM13.75 15.5834C13.75 15.8265 13.6534 16.0597 13.4815 16.2316C13.3096 16.4035 13.0764 16.5001 12.8333 16.5001H5.5C5.25689 16.5001 5.02373 16.4035 4.85182 16.2316C4.67991 16.0597 4.58333 15.8265 4.58333 15.5834C4.58333 15.3403 4.67991 15.1071 4.85182 14.9352C5.02373 14.7633 5.25689 14.6667 5.5 14.6667H12.8333C13.0764 14.6667 13.3096 14.7633 13.4815 14.9352C13.6534 15.1071 13.75 15.3403 13.75 15.5834ZM2.75 4.58342C2.75 4.40212 2.80376 4.22489 2.90449 4.07414C3.00521 3.9234 3.14837 3.80591 3.31587 3.73653C3.48337 3.66715 3.66768 3.64899 3.8455 3.68436C4.02332 3.71973 4.18665 3.80704 4.31485 3.93523C4.44305 4.06343 4.53035 4.22677 4.56572 4.40458C4.60109 4.5824 4.58294 4.76671 4.51356 4.93421C4.44418 5.10171 4.32668 5.24487 4.17594 5.3456C4.02519 5.44632 3.84797 5.50008 3.66667 5.50008C3.42355 5.50008 3.19039 5.4035 3.01849 5.2316C2.84658 5.05969 2.75 4.82653 2.75 4.58342ZM5.5 4.58342C5.5 4.40212 5.55376 4.22489 5.65449 4.07414C5.75521 3.9234 5.89838 3.80591 6.06587 3.73653C6.23337 3.66715 6.41768 3.64899 6.5955 3.68436C6.77332 3.71973 6.93665 3.80704 7.06485 3.93523C7.19305 4.06343 7.28035 4.22677 7.31572 4.40458C7.35109 4.5824 7.33294 4.76671 7.26356 4.93421C7.19418 5.10171 7.07668 5.24487 6.92594 5.3456C6.77519 5.44632 6.59797 5.50008 6.41667 5.50008C6.17355 5.50008 5.94039 5.4035 5.76849 5.2316C5.59658 5.05969 5.5 4.82653 5.5 4.58342ZM8.25 4.58342C8.25 4.40212 8.30376 4.22489 8.40449 4.07414C8.50521 3.9234 8.64837 3.80591 8.81587 3.73653C8.98337 3.66715 9.16768 3.64899 9.3455 3.68436C9.52332 3.71973 9.68665 3.80704 9.81485 3.93523C9.94305 4.06343 10.0304 4.22677 10.0657 4.40458C10.1011 4.5824 10.0829 4.76671 10.0136 4.93421C9.94418 5.10171 9.82668 5.24487 9.67594 5.3456C9.5252 5.44632 9.34797 5.50008 9.16667 5.50008C8.92355 5.50008 8.69039 5.4035 8.51849 5.2316C8.34658 5.05969 8.25 4.82653 8.25 4.58342Z" fill="#B9BBBD"/>
</g>
<defs>
<clipPath id="clip0_1141_9723">
<rect width="22" height="22" fill="white"/>
</clipPath>
</defs>
</svg>
