<svg width="48" height="48" viewBox="0 0 48 48" fill="none" xmlns="http://www.w3.org/2000/svg">
<path fill-rule="evenodd" clip-rule="evenodd" d="M38.835 25.5L30 25.5C29.2044 25.5 28.4413 25.1839 27.8787 24.6213C27.3161 24.0587 27 23.2956 27 22.5L27 13.5C27 12.7044 27.3161 11.9413 27.8787 11.3787C28.4413 10.8161 29.2044 10.5 30 10.5L39 10.5C39.7957 10.5 40.5587 10.8161 41.1213 11.3787C41.6839 11.9413 42 12.7044 42 13.5L42 23.475C41.9991 26.1909 41.3278 28.8647 40.0456 31.2589C38.7634 33.6532 36.9101 35.6939 34.65 37.2L31.965 39L30.315 36.51L33 34.71C34.5595 33.6649 35.8839 32.3061 36.8886 30.7203C37.8933 29.1344 38.5562 27.3565 38.835 25.5ZM17.835 25.5L9 25.5C8.20435 25.5 7.44129 25.1839 6.87868 24.6213C6.31607 24.0587 6 23.2956 6 22.5L6 13.5C6 12.7043 6.31607 11.9413 6.87868 11.3787C7.44129 10.8161 8.20435 10.5 9 10.5L18 10.5C18.7957 10.5 19.5587 10.8161 20.1213 11.3787C20.6839 11.9413 21 12.7043 21 13.5L21 23.475C20.9991 26.1909 20.3278 28.8647 19.0456 31.2589C17.7634 33.6532 15.9101 35.6939 13.65 37.2L10.95 39L9.315 36.51L12 34.71C13.5595 33.6649 14.8839 32.3061 15.8886 30.7202C16.8933 29.1344 17.5562 27.3565 17.835 25.5Z" fill="#614CE1"/>
</svg>
